<?xml version="1.0" encoding="UTF-8" standalone="no"?>
<!-- Created with Inkscape (http://www.inkscape.org/) -->

<svg
   xmlns:dc="http://purl.org/dc/elements/1.1/"
   xmlns:cc="http://creativecommons.org/ns#"
   xmlns:rdf="http://www.w3.org/1999/02/22-rdf-syntax-ns#"
   xmlns:svg="http://www.w3.org/2000/svg"
   xmlns="http://www.w3.org/2000/svg"
   xmlns:sodipodi="http://sodipodi.sourceforge.net/DTD/sodipodi-0.dtd"
   xmlns:inkscape="http://www.inkscape.org/namespaces/inkscape"
   id="svg8614"
   version="1.1"
   inkscape:version="0.91 r13725"
   xml:space="preserve"
   width="950"
   height="580"
   viewBox="0 0 950 580"
   sodipodi:docname="1hz_data.eps"><metadata
     id="metadata8620"><rdf:RDF><cc:Work
         rdf:about=""><dc:format>image/svg+xml</dc:format><dc:type
           rdf:resource="http://purl.org/dc/dcmitype/StillImage" /></cc:Work></rdf:RDF></metadata><defs
     id="defs8618" /><sodipodi:namedview
     pagecolor="#ffffff"
     bordercolor="#666666"
     borderopacity="1"
     objecttolerance="10"
     gridtolerance="10"
     guidetolerance="10"
     inkscape:pageopacity="0"
     inkscape:pageshadow="2"
     inkscape:window-width="640"
     inkscape:window-height="480"
     id="namedview8616"
     showgrid="false" /><g
     id="g8622"
     inkscape:groupmode="layer"
     inkscape:label="ink_ext_XXXXXX"
     transform="matrix(1.25,0,0,-1.25,0,580)"><g
       transform="scale(0.0999565,-0.100043)"
       id="g8632"><path
         inkscape:connector-curvature="0"
         id="path8634"
         style="fill:none;stroke:#dfdfdf;stroke-width:10.0010004;stroke-linecap:square;stroke-linejoin:miter;stroke-miterlimit:10;stroke-dasharray:none;stroke-opacity:1"
         d="m 1320.14,-2100.22 0,-2080.21" /></g><g
       transform="scale(0.0999565,-0.100043)"
       id="g8640"><path
         inkscape:connector-curvature="0"
         id="path8642"
         style="fill:none;stroke:#dfdfdf;stroke-width:10.0010004;stroke-linecap:square;stroke-linejoin:miter;stroke-miterlimit:10;stroke-dasharray:none;stroke-opacity:1"
         d="m 4530.47,-2100.22 0,-2080.21" /></g><g
       transform="scale(0.0999565,-0.100043)"
       id="g8644"><path
         inkscape:connector-curvature="0"
         id="path8646"
         style="fill:none;stroke:#dfdfdf;stroke-width:10.0010004;stroke-linecap:square;stroke-linejoin:miter;stroke-miterlimit:10;stroke-dasharray:none;stroke-opacity:1"
         d="m 4530.47,-2100.22 -3210.33,0" /></g><g
       transform="scale(0.0999565,-0.100043)"
       id="g8648"><path
         inkscape:connector-curvature="0"
         id="path8650"
         style="fill:none;stroke:#dfdfdf;stroke-width:10.0010004;stroke-linecap:square;stroke-linejoin:miter;stroke-miterlimit:10;stroke-dasharray:none;stroke-opacity:1"
         d="m 4530.47,-4180.43 -3210.33,0" /></g><g
       transform="matrix(0.0999565,0,0,-0.100043,0.4972653,-0.33093628)"
       id="g8694"
       style="fill:none;fill-opacity:1;stroke:#010101;stroke-opacity:1"><path
         inkscape:connector-curvature="0"
         id="path8696"
         style="fill:none;fill-opacity:1;stroke:#010101;stroke-width:10.0010004;stroke-linecap:square;stroke-linejoin:miter;stroke-miterlimit:10;stroke-dasharray:none;stroke-opacity:1"
         d="m 1340.2,-3171.53 0,-254.3" /></g><g
       transform="matrix(0.0999565,0,0,-0.100043,0.4680144,-0.24820221)"
       id="g8698"
       style="fill:none;fill-opacity:1;stroke:#010101;stroke-opacity:1"><path
         inkscape:connector-curvature="0"
         id="path8700"
         style="fill:none;fill-opacity:1;stroke:#010101;stroke-width:10.0010004;stroke-linecap:square;stroke-linejoin:miter;stroke-miterlimit:10;stroke-dasharray:none;stroke-opacity:1"
         d="m 1540.85,-2961 0,-236.38" /></g><g
       transform="matrix(0.0999565,0,0,-0.100043,0.41367035,-0.08273407)"
       id="g8702"
       style="fill:none;fill-opacity:1;stroke:#010101;stroke-opacity:1"><path
         inkscape:connector-curvature="0"
         id="path8704"
         style="fill:none;fill-opacity:1;stroke:#010101;stroke-width:10.0010004;stroke-linecap:square;stroke-linejoin:miter;stroke-miterlimit:10;stroke-dasharray:none;stroke-opacity:1"
         d="m 1741.49,-2916.04 0,-180.05" /></g><g
       transform="matrix(0.0999565,0,0,-0.100043,0.33093628,-0.24820221)"
       id="g8706"
       style="fill:none;fill-opacity:1;stroke:#010101;stroke-opacity:1"><path
         inkscape:connector-curvature="0"
         id="path8708"
         style="fill:none;fill-opacity:1;stroke:#010101;stroke-width:10.0010004;stroke-linecap:square;stroke-linejoin:miter;stroke-miterlimit:10;stroke-dasharray:none;stroke-opacity:1"
         d="m 1942.15,-2777.69 0,-201.3" /></g><g
       transform="matrix(0.0999565,0,0,-0.100043,0.24820221,0.33093628)"
       id="g8710"
       style="fill:none;fill-opacity:1;stroke:#010101;stroke-opacity:1"><path
         inkscape:connector-curvature="0"
         id="path8712"
         style="fill:none;fill-opacity:1;stroke:#010101;stroke-width:10.0010004;stroke-linecap:square;stroke-linejoin:miter;stroke-miterlimit:10;stroke-dasharray:none;stroke-opacity:1"
         d="m 2142.78,-2697.66 0,-206.41" /></g><g
       transform="matrix(0.0999565,0,0,-0.100043,0.24820221,-0.08273407)"
       id="g8714"
       style="fill:none;fill-opacity:1;stroke:#010101;stroke-opacity:1"><path
         inkscape:connector-curvature="0"
         id="path8716"
         style="fill:none;fill-opacity:1;stroke:#010101;stroke-width:10.0010004;stroke-linecap:square;stroke-linejoin:miter;stroke-miterlimit:10;stroke-dasharray:none;stroke-opacity:1"
         d="m 2343.44,-2722.55 0,-206.45" /></g><g
       transform="matrix(0.0999565,0,0,-0.100043,0.16546814,0)"
       id="g8718"
       style="fill:none;fill-opacity:1;stroke:#010101;stroke-opacity:1"><path
         inkscape:connector-curvature="0"
         id="path8720"
         style="fill:none;fill-opacity:1;stroke:#010101;stroke-width:10.0010004;stroke-linecap:square;stroke-linejoin:miter;stroke-miterlimit:10;stroke-dasharray:none;stroke-opacity:1"
         d="m 2544.08,-2562.05 0,-123.89" /></g><g
       transform="matrix(0.0999565,0,0,-0.100043,0,-0.16546814)"
       id="g8722"
       style="fill:none;fill-opacity:1;stroke:#010101;stroke-opacity:1"><path
         inkscape:connector-curvature="0"
         id="path8724"
         style="fill:none;fill-opacity:1;stroke:#010101;stroke-width:10.0010004;stroke-linecap:square;stroke-linejoin:miter;stroke-miterlimit:10;stroke-dasharray:none;stroke-opacity:1"
         d="m 2744.73,-2571.19 0,-112.92" /></g><g
       transform="matrix(0.0999565,0,0,-0.100043,0,0.24820221)"
       id="g8726"
       style="fill:none;fill-opacity:1;stroke:#010101;stroke-opacity:1"><path
         inkscape:connector-curvature="0"
         id="path8728"
         style="fill:none;fill-opacity:1;stroke:#010101;stroke-width:10.0010004;stroke-linecap:square;stroke-linejoin:miter;stroke-miterlimit:10;stroke-dasharray:none;stroke-opacity:1"
         d="m 2945.37,-2616.99 0,-129.36" /></g><g
       transform="matrix(0.0999565,0,0,-0.100043,-0.08273407,-0.24820221)"
       id="g8730"
       style="fill:none;fill-opacity:1;stroke:#010101;stroke-opacity:1"><path
         inkscape:connector-curvature="0"
         id="path8732"
         style="fill:none;fill-opacity:1;stroke:#010101;stroke-width:10.0010004;stroke-linecap:square;stroke-linejoin:miter;stroke-miterlimit:10;stroke-dasharray:none;stroke-opacity:1"
         d="m 3146.02,-2373.07 0,-109.49" /></g><g
       transform="matrix(0.0999565,0,0,-0.100043,-0.16546814,0.08273407)"
       id="g8734"
       style="fill:none;fill-opacity:1;stroke:#010101;stroke-opacity:1"><path
         inkscape:connector-curvature="0"
         id="path8736"
         style="fill:none;fill-opacity:1;stroke:#010101;stroke-width:10.0010004;stroke-linecap:square;stroke-linejoin:miter;stroke-miterlimit:10;stroke-dasharray:none;stroke-opacity:1"
         d="m 3346.66,-2473.15 0,-121.41" /></g><g
       transform="matrix(0.0999565,0,0,-0.100043,-0.16546814,-0.16546814)"
       id="g8738"
       style="fill:none;fill-opacity:1;stroke:#010101;stroke-opacity:1"><path
         inkscape:connector-curvature="0"
         id="path8740"
         style="fill:none;fill-opacity:1;stroke:#010101;stroke-width:10.0010004;stroke-linecap:square;stroke-linejoin:miter;stroke-miterlimit:10;stroke-dasharray:none;stroke-opacity:1"
         d="m 3547.31,-2442.72 0,-108.39" /></g><g
       transform="matrix(0.0999565,0,0,-0.100043,-0.24820221,0.24820221)"
       id="g8742"
       style="fill:none;fill-opacity:1;stroke:#010101;stroke-opacity:1"><path
         inkscape:connector-curvature="0"
         id="path8744"
         style="fill:none;fill-opacity:1;stroke:#010101;stroke-width:10.0010004;stroke-linecap:square;stroke-linejoin:miter;stroke-miterlimit:10;stroke-dasharray:none;stroke-opacity:1"
         d="m 3747.95,-2279.95 0,-104.56" /></g><g
       transform="matrix(0.0999565,0,0,-0.100043,-0.24820221,0.24820221)"
       id="g8746"
       style="fill:none;fill-opacity:1;stroke:#010101;stroke-opacity:1"><path
         inkscape:connector-curvature="0"
         id="path8748"
         style="fill:none;fill-opacity:1;stroke:#010101;stroke-width:10.0010004;stroke-linecap:square;stroke-linejoin:miter;stroke-miterlimit:10;stroke-dasharray:none;stroke-opacity:1"
         d="m 3948.6,-2356.01 0,-113.98" /></g><g
       transform="matrix(0.0999565,0,0,-0.100043,-0.33093628,0.24820221)"
       id="g8750"
       style="fill:none;fill-opacity:1;stroke:#010101;stroke-opacity:1"><path
         inkscape:connector-curvature="0"
         id="path8752"
         style="fill:none;fill-opacity:1;stroke:#010101;stroke-width:10.0010004;stroke-linecap:square;stroke-linejoin:miter;stroke-miterlimit:10;stroke-dasharray:none;stroke-opacity:1"
         d="m 4149.25,-2405.49 0,-94.01" /></g><g
       transform="matrix(0.0999565,0,0,-0.100043,-0.57913849,0.16546814)"
       id="g8754"
       style="fill:none;fill-opacity:1;stroke:#010101;stroke-opacity:1"><path
         inkscape:connector-curvature="0"
         id="path8756"
         style="fill:none;fill-opacity:1;stroke:#010101;stroke-width:10.0010004;stroke-linecap:square;stroke-linejoin:miter;stroke-miterlimit:10;stroke-dasharray:none;stroke-opacity:1"
         d="m 4349.9,-2320.7 0,-101.8" /></g><g
       transform="scale(0.0999565,-0.100043)"
       id="g8758"
       style="fill:#010101;fill-opacity:1;stroke:#010101;stroke-opacity:1"><path
         inkscape:connector-curvature="0"
         id="path8760"
         style="fill:#010101;stroke:#010101;stroke-width:10.0010004;stroke-linecap:square;stroke-linejoin:miter;stroke-miterlimit:10;stroke-dasharray:none;stroke-opacity:1;fill-opacity:1"
         d="m 1319.82,-3287.4 18.38,0" /></g><path
       inkscape:connector-curvature="0"
       id="path8894"
       style="fill:#010101;fill-opacity:1;fill-rule:nonzero;stroke:#010101;stroke-opacity:1"
       d="m 136.944,332.168 c -0.63491,0.63509 -1.59097,1.03113 -2.489,1.031 -0.89741,-1.3e-4 -1.85261,-0.39625 -2.487,-1.031 -0.63526,-0.63562 -1.03106,-1.59236 -1.031,-2.491 6e-5,-0.89834 0.39603,-1.85454 1.031,-2.49 0.63441,-0.6349 1.58946,-1.03187 2.487,-1.032 0.89816,-1.3e-4 1.85406,0.39675 2.489,1.032 0.63507,0.63537 1.03094,1.59166 1.031,2.49 6e-5,0.89864 -0.39565,1.85547 -1.031,2.491 z"
       sodipodi:nodetypes="sssssssss" /><path
       inkscape:connector-curvature="0"
       id="path8896"
       style="fill:#010101;fill-opacity:1;fill-rule:nonzero;stroke:#010101;stroke-opacity:1"
       d="m 156.937,310.156 c -0.63467,0.63507 -1.59015,1.032 -2.488,1.032 -0.89785,0 -1.85333,-0.39693 -2.488,-1.032 -0.63502,-0.63542 -1.03094,-1.59166 -1.031,-2.49 -6e-5,-0.89864 0.3957,-1.85543 1.031,-2.491 0.63465,-0.63492 1.59028,-1.031 2.488,-1.031 0.89772,0 1.85335,0.39608 2.488,1.031 0.6353,0.63557 1.03106,1.59236 1.031,2.491 -6e-5,0.89834 -0.39598,1.85458 -1.031,2.49 z"
       sodipodi:nodetypes="sssssssss" /><path
       inkscape:connector-curvature="0"
       id="path8898"
       style="fill:#010101;fill-opacity:1;fill-rule:nonzero;stroke:#010101;stroke-opacity:1"
       d="m 176.93,303.152 c -0.63441,0.6349 -1.58946,1.03187 -2.487,1.032 -0.89816,1.3e-4 -1.85406,-0.39675 -2.489,-1.032 -0.63507,-0.63537 -1.03094,-1.59166 -1.031,-2.49 -6e-5,-0.89864 0.39565,-1.85547 1.031,-2.491 0.63491,-0.63509 1.59097,-1.03113 2.489,-1.031 0.89741,1.3e-4 1.85261,0.39625 2.487,1.031 0.63526,0.63562 1.03106,1.59236 1.031,2.491 -6e-5,0.89834 -0.39603,1.85454 -1.031,2.49 z"
       sodipodi:nodetypes="sssssssss" /><path
       inkscape:connector-curvature="0"
       id="path8900"
       style="fill:#010101;fill-opacity:1;fill-rule:nonzero;stroke:#010101;stroke-opacity:1"
       d="m 196.924,290.145 c -0.63467,0.63507 -1.59015,1.032 -2.488,1.032 -0.89785,0 -1.85333,-0.39693 -2.488,-1.032 -0.63502,-0.63542 -1.03094,-1.59166 -1.031,-2.49 -6e-5,-0.89864 0.3957,-1.85543 1.031,-2.491 0.63465,-0.63492 1.59028,-1.031 2.488,-1.031 0.89772,0 1.85335,0.39608 2.488,1.031 0.6353,0.63557 1.03106,1.59236 1.031,2.491 -6e-5,0.89834 -0.39598,1.85458 -1.031,2.49 z"
       sodipodi:nodetypes="sssssssss" /><path
       inkscape:connector-curvature="0"
       id="path8902"
       style="fill:#010101;fill-opacity:1;fill-rule:nonzero;stroke:#010101;stroke-opacity:1"
       d="m 216.918,283.141 c -0.63483,0.63535 -1.59084,1.03206 -2.489,1.032 -0.89785,-6e-5 -1.85343,-0.39682 -2.488,-1.032 -0.63482,-0.63544 -1.03,-1.59179 -1.03,-2.49 0,-0.89821 0.39518,-1.85456 1.03,-2.49 0.63457,-0.63518 1.59015,-1.03194 2.488,-1.032 0.89816,-6e-5 1.85417,0.39665 2.489,1.032 0.63487,0.63539 1.03,1.59179 1.03,2.49 0,0.89821 -0.39513,1.85461 -1.03,2.49 z"
       sodipodi:nodetypes="sssssssss" /><path
       inkscape:connector-curvature="0"
       id="path8904"
       style="fill:#010101;fill-opacity:1;fill-rule:nonzero;stroke:#010101;stroke-opacity:1"
       d="m 236.911,285.142 c -0.63457,0.63518 -1.59015,1.03194 -2.488,1.032 -0.89816,6e-5 -1.85417,-0.39665 -2.489,-1.032 -0.63487,-0.63539 -1.03,-1.59179 -1.03,-2.49 0,-0.89821 0.39513,-1.85461 1.03,-2.49 0.63483,-0.63535 1.59084,-1.03206 2.489,-1.032 0.89785,6e-5 1.85343,0.39682 2.488,1.032 0.63482,0.63544 1.03,1.59179 1.03,2.49 0,0.89821 -0.39518,1.85456 -1.03,2.49 z"
       sodipodi:nodetypes="sssssssss" /><path
       inkscape:connector-curvature="0"
       id="path8906"
       style="fill:#010101;fill-opacity:1;fill-rule:nonzero;stroke:#010101;stroke-opacity:1"
       d="m 256.904,265.132 c -0.63465,0.63492 -1.59028,1.031 -2.488,1.031 -0.89772,0 -1.85335,-0.39608 -2.488,-1.031 -0.6353,-0.63557 -1.03106,-1.59236 -1.031,-2.491 6e-5,-0.89834 0.39598,-1.85458 1.031,-2.49 0.63467,-0.63507 1.59015,-1.032 2.488,-1.032 0.89785,0 1.85333,0.39693 2.488,1.032 0.63502,0.63542 1.03094,1.59166 1.031,2.49 6e-5,0.89864 -0.3957,1.85543 -1.031,2.491 z"
       sodipodi:nodetypes="sssssssss" /><path
       inkscape:connector-curvature="0"
       id="path8908"
       style="fill:#010101;fill-opacity:1;fill-rule:nonzero;stroke:#010101;stroke-opacity:1"
       d="m 276.898,265.132 c -0.6348,0.6352 -1.59097,1.03106 -2.489,1.031 -0.89772,-6e-5 -1.85346,-0.39597 -2.488,-1.031 -0.6351,-0.63559 -1.03006,-1.59248 -1.03,-2.491 6e-5,-0.89821 0.39518,-1.85456 1.03,-2.49 0.63457,-0.63518 1.59015,-1.03194 2.488,-1.032 0.89816,-6e-5 1.85417,0.39665 2.489,1.032 0.63487,0.63539 1.02994,1.59179 1.03,2.49 6e-5,0.89852 -0.39485,1.85545 -1.03,2.491 z"
       sodipodi:nodetypes="sssssssss" /><path
       inkscape:connector-curvature="0"
       id="path8910"
       style="fill:#010101;fill-opacity:1;fill-rule:nonzero;stroke:#010101;stroke-opacity:1"
       d="m 296.891,271.135 c -0.63458,0.63498 -1.59028,1.03094 -2.488,1.031 -0.89803,6e-5 -1.85415,-0.39584 -2.489,-1.031 -0.63498,-0.63528 -1.02994,-1.59179 -1.03,-2.49 -6e-5,-0.89852 0.39485,-1.85545 1.03,-2.491 0.6348,-0.6352 1.59097,-1.03106 2.489,-1.031 0.89772,6e-5 1.85346,0.39597 2.488,1.031 0.6351,0.63559 1.03006,1.59248 1.03,2.491 -6e-5,0.89821 -0.39507,1.85467 -1.03,2.49 z"
       sodipodi:nodetypes="sssssssss" /><path
       inkscape:connector-curvature="0"
       id="path8912"
       style="fill:#010101;fill-opacity:1;fill-rule:nonzero;stroke:#010101;stroke-opacity:1"
       d="m 316.884,245.121 c -0.63465,0.63492 -1.59028,1.031 -2.488,1.031 -0.89772,0 -1.85335,-0.39608 -2.488,-1.031 -0.6353,-0.63557 -1.03106,-1.59236 -1.031,-2.491 6e-5,-0.89834 0.39587,-1.85469 1.031,-2.49 0.63469,-0.63487 1.59028,-1.031 2.488,-1.031 0.89772,0 1.85331,0.39613 2.488,1.031 0.63513,0.63531 1.03094,1.59166 1.031,2.49 6e-5,0.89864 -0.3957,1.85543 -1.031,2.491 z"
       sodipodi:nodetypes="sssssssss" /><path
       inkscape:connector-curvature="0"
       id="path8914"
       style="fill:#010101;fill-opacity:1;fill-rule:nonzero;stroke:#010101;stroke-opacity:1"
       d="m 336.878,256.127 c -0.63491,0.63509 -1.59097,1.03113 -2.489,1.031 -0.89741,-1.3e-4 -1.85261,-0.39625 -2.487,-1.031 -0.63526,-0.63562 -1.03106,-1.59236 -1.031,-2.491 6e-5,-0.89834 0.39603,-1.85454 1.031,-2.49 0.63441,-0.6349 1.58946,-1.03187 2.487,-1.032 0.89816,-1.3e-4 1.85406,0.39675 2.489,1.032 0.63507,0.63537 1.03094,1.59166 1.031,2.49 6e-5,0.89864 -0.39565,1.85547 -1.031,2.491 z"
       sodipodi:nodetypes="sssssssss" /><path
       inkscape:connector-curvature="0"
       id="path8916"
       style="fill:#010101;fill-opacity:1;fill-rule:nonzero;stroke:#010101;stroke-opacity:1"
       d="m 356.871,252.125 c -0.63465,0.63492 -1.59028,1.031 -2.488,1.031 -0.89772,0 -1.85335,-0.39608 -2.488,-1.031 -0.6353,-0.63557 -1.03106,-1.59236 -1.031,-2.491 6e-5,-0.89834 0.39598,-1.85458 1.031,-2.49 0.63467,-0.63507 1.59015,-1.032 2.488,-1.032 0.89785,0 1.85333,0.39693 2.488,1.032 0.63502,0.63542 1.03094,1.59166 1.031,2.49 6e-5,0.89864 -0.3957,1.85543 -1.031,2.491 z"
       sodipodi:nodetypes="sssssssss" /><path
       inkscape:connector-curvature="0"
       id="path8918"
       style="fill:#010101;fill-opacity:1;fill-rule:nonzero;stroke:#010101;stroke-opacity:1"
       d="m 376.864,236.116 c -0.63439,0.63475 -1.58959,1.03087 -2.487,1.031 -0.89803,1.3e-4 -1.85409,-0.39591 -2.489,-1.031 -0.63535,-0.63553 -1.03106,-1.59236 -1.031,-2.491 6e-5,-0.89834 0.39583,-1.85474 1.031,-2.49 0.63496,-0.63505 1.59097,-1.03113 2.489,-1.031 0.89741,1.3e-4 1.85257,0.3963 2.487,1.031 0.63508,0.63535 1.03094,1.59166 1.031,2.49 6e-5,0.89864 -0.39574,1.85538 -1.031,2.491 z"
       sodipodi:nodetypes="sssssssss" /><path
       inkscape:connector-curvature="0"
       id="path8920"
       style="fill:#010101;fill-opacity:1;fill-rule:nonzero;stroke:#010101;stroke-opacity:1"
       d="m 396.858,244.12 c -0.63467,0.63507 -1.59015,1.032 -2.488,1.032 -0.89785,0 -1.85333,-0.39693 -2.488,-1.032 -0.63502,-0.63542 -1.03094,-1.59166 -1.031,-2.49 -6e-5,-0.89864 0.3957,-1.85543 1.031,-2.491 0.63465,-0.63492 1.59028,-1.031 2.488,-1.031 0.89772,0 1.85335,0.39608 2.488,1.031 0.6353,0.63557 1.03106,1.59236 1.031,2.491 -6e-5,0.89834 -0.39598,1.85458 -1.031,2.49 z"
       sodipodi:nodetypes="sssssssss" /><path
       inkscape:connector-curvature="0"
       id="path8922"
       style="fill:#010101;fill-opacity:1;fill-rule:nonzero;stroke:#010101;stroke-opacity:1"
       d="m 416.852,248.122 c -0.63483,0.63535 -1.59084,1.03206 -2.489,1.032 -0.89785,-6e-5 -1.85343,-0.39682 -2.488,-1.032 -0.63482,-0.63544 -1.03,-1.59179 -1.03,-2.49 0,-0.89821 0.39518,-1.85456 1.03,-2.49 0.63457,-0.63518 1.59015,-1.03194 2.488,-1.032 0.89816,-6e-5 1.85417,0.39665 2.489,1.032 0.63487,0.63539 1.03,1.59179 1.03,2.49 0,0.89821 -0.39513,1.85461 -1.03,2.49 z"
       sodipodi:nodetypes="sssssssss" /><path
       inkscape:connector-curvature="0"
       id="path8924"
       style="fill:#010101;fill-opacity:1;fill-rule:nonzero;stroke:#010101;stroke-opacity:1"
       d="m 436.845,240.118 c -0.63457,0.63518 -1.59015,1.03194 -2.488,1.032 -0.89816,6e-5 -1.85417,-0.39665 -2.489,-1.032 -0.63487,-0.63539 -1.03,-1.59179 -1.03,-2.49 0,-0.89821 0.39513,-1.85461 1.03,-2.49 0.63483,-0.63535 1.59084,-1.03206 2.489,-1.032 0.89785,6e-5 1.85343,0.39682 2.488,1.032 0.63482,0.63544 1.03,1.59179 1.03,2.49 0,0.89821 -0.39518,1.85456 -1.03,2.49 z"
       sodipodi:nodetypes="sssssssss" /><g
       transform="scale(0.0999565,-0.100043)"
       id="g8926"
       style="fill:none;stroke:#c8c8c8;stroke-opacity:1"><path
         inkscape:connector-curvature="0"
         id="path8928"
         style="fill:none;stroke:#c8c8c8;stroke-width:15.00160027;stroke-linecap:butt;stroke-linejoin:bevel;stroke-miterlimit:10;stroke-dasharray:none;stroke-opacity:1"
         d="m 1319.82,-3234.52 3.76,2.21 14.36,8.4 2.26,1.32 12.09,7.01 14.36,8.27 14.36,8.21 14.37,8.15 14.36,8.08 14.36,8.03 14.36,7.97 14.36,7.91 14.37,7.85 14.36,7.79 14.36,7.73 14.36,7.69 14.36,7.61 14.36,7.57 1.86,0.97 12.5,6.53 14.36,7.45 14.36,7.4 14.37,7.34 14.36,7.29 14.36,7.23 14.36,7.19 14.36,7.11 14.37,7.09 14.36,7.02 14.36,6.97 14.36,6.91 14.36,6.87 14.36,6.81 1.44,0.68 12.93,6.09 14.36,6.71 14.36,6.66 14.36,6.62 14.36,6.56 14.36,6.52 14.36,6.47 14.36,6.42 14.37,6.38 14.36,6.32 14.36,6.29 14.36,6.23 14.36,6.18 14.36,6.14 1.04,0.44 13.33,5.66" /></g><g
       transform="scale(0.0999565,-0.100043)"
       id="g8930"
       style="fill:none;stroke:#c8c8c8;stroke-opacity:1"><path
         inkscape:connector-curvature="0"
         id="path8932"
         style="fill:none;stroke:#c8c8c8;stroke-width:15.00160027;stroke-linecap:butt;stroke-linejoin:bevel;stroke-miterlimit:10;stroke-dasharray:none;stroke-opacity:1"
         d="m 1955.48,-2916.17 14.36,6.05 14.36,6 14.36,5.96 14.36,5.92 14.36,5.87 14.37,5.83 14.36,5.78 14.36,5.75 14.35,5.7 14.36,5.65 14.36,5.63 14.36,5.56 14.37,5.55 0.61,0.23 13.75,5.26 14.36,5.45 14.36,5.41 14.36,5.37 14.36,5.33 14.36,5.29 14.36,5.25 14.37,5.21 14.36,5.18 14.36,5.13 14.36,5.1 14.36,5.06 14.36,5.02 14.37,4.99 0.21,0.07 14.15,4.88 14.36,4.92 14.36,4.87 14.36,4.84 14.36,4.81 14.37,4.76 14.36,4.74 14.36,4.69 14.36,4.66 14.36,4.63 14.36,4.6 14.36,4.55 14.36,4.53 14.16,4.43 0.21,0.06 14.36,4.46 14.36,4.43 14.36,4.39 14.36,4.36 14.36,4.33" /></g><g
       transform="scale(0.0999565,-0.100043)"
       id="g8934"
       style="fill:none;fill-opacity:1;stroke:#c8c8c8;stroke-opacity:1"><path
         inkscape:connector-curvature="0"
         id="path8936"
         style="fill:none;stroke:#c8c8c8;stroke-width:15.00160027;stroke-linecap:butt;stroke-linejoin:bevel;stroke-miterlimit:10;stroke-dasharray:none;stroke-opacity:1;fill-opacity:1"
         d="m 2616.09,-2679.63 14.37,4.29 14.36,4.28 14.36,4.22 14.36,4.2 14.36,4.18 14.37,4.14 14.36,4.11 14.36,4.07 13.74,3.88 0.62,0.17 14.36,4.02 14.36,3.99 14.36,3.95 14.36,3.93 14.36,3.9 14.36,3.87 14.36,3.84 14.36,3.82 14.36,3.78 14.36,3.76 14.36,3.73 14.37,3.7 14.36,3.68 13.33,3.38 1.03,0.26 14.36,3.62 14.36,3.6 14.36,3.56 14.37,3.55 14.36,3.51 14.36,3.49 14.36,3.47 14.36,3.43 14.36,3.4 14.37,3.4 14.36,3.36 14.36,3.33 14.36,3.31 12.92,2.96 1.44,0.33 14.36,3.26 14.36,3.24 14.36,3.21 14.37,3.19 14.36,3.17 14.36,3.14 14.36,3.12 14.36,3.1 14.36,3.07" /></g><g
       transform="scale(0.0999565,-0.100043)"
       id="g8938"
       style="fill:none;stroke:#c8c8c8;stroke-opacity:1"><path
         inkscape:connector-curvature="0"
         id="path8940"
         style="fill:none;stroke:#c8c8c8;stroke-width:15.00160027;stroke-linecap:butt;stroke-linejoin:bevel;stroke-miterlimit:10;stroke-dasharray:none;stroke-opacity:1"
         d="m 3276.71,-2511.66 14.37,3.05 14.36,3.03 14.36,3 14.36,2.99 12.5,2.58 1.86,0.38 14.36,2.94 14.37,2.91 14.36,2.9 14.36,2.87 14.36,2.86 14.36,2.83 14.36,2.81 14.36,2.8 14.36,2.77 14.37,2.74 14.36,2.73 14.36,2.71 14.36,2.69 12.09,2.25 2.26,0.42 14.36,2.64 14.36,2.63 14.37,2.61 14.36,2.59 14.36,2.57 14.36,2.55 14.36,2.54 14.36,2.51 14.37,2.5 14.36,2.47 14.36,2.46 14.36,2.44 14.36,2.42 11.68,1.96 2.69,0.45 14.36,2.38 14.36,2.37 14.36,2.35 14.36,2.33 14.36,2.32 14.36,2.3 14.36,2.28 14.37,2.27 14.36,2.25 14.36,2.23 14.36,2.21 14.36,2.2 14.36,2.18" /></g><g
       transform="scale(0.0999565,-0.100043)"
       id="g8942"
       style="fill:none;stroke:#c8c8c8;stroke-opacity:1"><path
         inkscape:connector-curvature="0"
         id="path8944"
         style="fill:none;stroke:#c8c8c8;stroke-width:15.00160027;stroke-linecap:butt;stroke-linejoin:bevel;stroke-miterlimit:10;stroke-dasharray:none;stroke-opacity:1"
         d="m 3937.33,-2392.39 11.27,1.7 3.1,0.48 14.36,2.14 14.36,2.13 14.36,2.13 14.36,2.1 14.36,2.08 14.37,2.07 14.36,2.07 14.36,2.04 14.36,2.02 14.36,2.02 14.36,1.99 14.36,1.98 14.36,1.97 10.86,1.48 3.51,0.47 14.36,1.94 14.36,1.92 14.36,1.91 14.36,1.89 14.36,1.88 14.37,1.87 14.36,1.85 14.35,1.84 14.36,1.83 14.36,1.81 14.36,1.8 14.36,1.78 14.37,1.77 10.45,1.29 3.91,0.47 14.36,1.75 14.36,1.73 14.36,1.72 14.36,1.71 14.37,1.69 14.36,1.68 14.36,1.67 14.36,1.66 14.36,1.65 14.36,1.63 14.36,1.62 14.36,1.61 4.65,0.51" /></g></g></svg>