<?xml version="1.0" encoding="UTF-8" standalone="no"?>
<!-- Created with Inkscape (http://www.inkscape.org/) -->

<svg
   xmlns:dc="http://purl.org/dc/elements/1.1/"
   xmlns:cc="http://creativecommons.org/ns#"
   xmlns:rdf="http://www.w3.org/1999/02/22-rdf-syntax-ns#"
   xmlns:svg="http://www.w3.org/2000/svg"
   xmlns="http://www.w3.org/2000/svg"
   xmlns:sodipodi="http://sodipodi.sourceforge.net/DTD/sodipodi-0.dtd"
   xmlns:inkscape="http://www.inkscape.org/namespaces/inkscape"
   id="svg12028"
   version="1.1"
   inkscape:version="0.91 r13725"
   xml:space="preserve"
   width="470"
   height="391.25"
   viewBox="0 0 470 391.25"
   sodipodi:docname="Spec_Prep_Inkscape.svg"
   inkscape:export-filename="/Users/dreens/Documents/OH/spin-flip-writing/MWSpec/MW-therm-dave-heat.png"
   inkscape:export-xdpi="384.70999"
   inkscape:export-ydpi="384.70999"><metadata
     id="metadata12034"><rdf:RDF><cc:Work
         rdf:about=""><dc:format>image/svg+xml</dc:format><dc:type
           rdf:resource="http://purl.org/dc/dcmitype/StillImage" /><dc:title /></cc:Work></rdf:RDF></metadata><defs
     id="defs12032" /><sodipodi:namedview
     pagecolor="#ffffff"
     bordercolor="#666666"
     borderopacity="1"
     objecttolerance="10"
     gridtolerance="10"
     guidetolerance="10"
     inkscape:pageopacity="0"
     inkscape:pageshadow="2"
     inkscape:window-width="1256"
     inkscape:window-height="756"
     id="namedview12030"
     showgrid="false"
     inkscape:zoom="1.4313099"
     inkscape:cx="140.98766"
     inkscape:cy="182.29282"
     inkscape:window-x="0"
     inkscape:window-y="0"
     inkscape:window-maximized="0"
     inkscape:current-layer="g12036" /><g
     id="g12036"
     inkscape:groupmode="layer"
     inkscape:label="ink_ext_XXXXXX"
     transform="matrix(1.25,0,0,-1.25,0,391.25)"><path
       d="m 65.730073,36.558943 0,269.139787"
       style="fill:none;stroke:#828282;stroke-width:0.99984974;stroke-linecap:square;stroke-linejoin:miter;stroke-miterlimit:10;stroke-dasharray:none;stroke-opacity:1"
       id="path12042"
       inkscape:connector-curvature="0" /><path
       d="m 116.9844,36.558943 0,269.139787"
       style="fill:none;stroke:#828282;stroke-width:0.99984974;stroke-linecap:square;stroke-linejoin:miter;stroke-miterlimit:10;stroke-dasharray:none;stroke-opacity:1"
       id="path12046"
       inkscape:connector-curvature="0" /><path
       d="m 168.23852,36.558943 0,269.139787"
       style="fill:none;stroke:#828282;stroke-width:0.99984974;stroke-linecap:square;stroke-linejoin:miter;stroke-miterlimit:10;stroke-dasharray:none;stroke-opacity:1"
       id="path12050"
       inkscape:connector-curvature="0" /><path
       d="m 219.49264,36.558943 0,269.139787"
       style="fill:none;stroke:#828282;stroke-width:0.99984974;stroke-linecap:square;stroke-linejoin:miter;stroke-miterlimit:10;stroke-dasharray:none;stroke-opacity:1"
       id="path12054"
       inkscape:connector-curvature="0" /><path
       d="m 270.74177,36.558943 0,269.139787"
       style="fill:none;stroke:#828282;stroke-width:0.99984974;stroke-linecap:square;stroke-linejoin:miter;stroke-miterlimit:10;stroke-dasharray:none;stroke-opacity:1"
       id="path12058"
       inkscape:connector-curvature="0" /><path
       d="m 321.99989,36.558943 0,269.139787"
       style="fill:none;stroke:#828282;stroke-width:0.99984974;stroke-linecap:square;stroke-linejoin:miter;stroke-miterlimit:10;stroke-dasharray:none;stroke-opacity:1"
       id="path12062"
       inkscape:connector-curvature="0" /><path
       d="m 332.24992,36.558943 -276.773769,0"
       style="fill:none;stroke:#000000;stroke-width:0.99984974;stroke-linecap:square;stroke-linejoin:miter;stroke-miterlimit:10;stroke-dasharray:none;stroke-opacity:1"
       id="path12066"
       inkscape:connector-curvature="0" /><path
       d="m 332.24992,75.008171 -276.773769,0"
       style="fill:none;stroke:#828282;stroke-width:0.99984974;stroke-linecap:square;stroke-linejoin:miter;stroke-miterlimit:10;stroke-dasharray:none;stroke-opacity:1"
       id="path12070"
       inkscape:connector-curvature="0" /><path
       d="m 332.24992,113.4571 -276.773769,0"
       style="fill:none;stroke:#828282;stroke-width:0.99984974;stroke-linecap:square;stroke-linejoin:miter;stroke-miterlimit:10;stroke-dasharray:none;stroke-opacity:1"
       id="path12074"
       inkscape:connector-curvature="0" /><path
       d="m 332.24992,151.90623 -276.773769,0"
       style="fill:none;stroke:#828282;stroke-width:0.99984974;stroke-linecap:square;stroke-linejoin:miter;stroke-miterlimit:10;stroke-dasharray:none;stroke-opacity:1"
       id="path12078"
       inkscape:connector-curvature="0" /><path
       d="m 332.24992,190.35235 -276.773769,0"
       style="fill:none;stroke:#828282;stroke-width:0.99984974;stroke-linecap:square;stroke-linejoin:miter;stroke-miterlimit:10;stroke-dasharray:none;stroke-opacity:1"
       id="path12082"
       inkscape:connector-curvature="0" /><path
       d="m 332.24992,228.80148 -276.773769,0"
       style="fill:none;stroke:#828282;stroke-width:0.99984974;stroke-linecap:square;stroke-linejoin:miter;stroke-miterlimit:10;stroke-dasharray:none;stroke-opacity:1"
       id="path12086"
       inkscape:connector-curvature="0" /><path
       d="m 332.24992,267.24961 -276.773769,0"
       style="fill:none;stroke:#828282;stroke-width:0.99984974;stroke-linecap:square;stroke-linejoin:miter;stroke-miterlimit:10;stroke-dasharray:none;stroke-opacity:1"
       id="path12090"
       inkscape:connector-curvature="0" /><path
       d="m 332.24992,305.69873 -276.773769,0"
       style="fill:none;stroke:#000000;stroke-width:0.99984974;stroke-linecap:square;stroke-linejoin:miter;stroke-miterlimit:10;stroke-dasharray:none;stroke-opacity:1"
       id="path12094"
       inkscape:connector-curvature="0" /><text
       transform="scale(0.99932027,-1.0006802)"
       style="font-variant:normal;font-weight:normal;font-size:14.99779892px;font-family:Helvetica;-inkscape-font-specification:Helvetica;writing-mode:lr-tb;fill:#262626;fill-opacity:1;fill-rule:nonzero;stroke:none"
       id="text12098"
       x="116.00585"
       y="-3.7396464"><tspan
         x="116.00585 128.49902 136.8378 145.17657 153.51535 161.85413 166.02351 169.35303 176.85191 181.0213 190.18497 193.51447 201.85326 205.18277 213.52155 217.69093 222.6852 234.35349 242.69226 251.03104 258.52994 266.02884"
         y="-3.7396464"
         sodipodi:role="line"
         id="tspan12100">Magnetic Field (Gauss)</tspan></text>
<path
       d="m 55.476151,36.558943 276.773769,0"
       style="fill:none;stroke:#000000;stroke-width:0.99984974;stroke-linecap:square;stroke-linejoin:miter;stroke-miterlimit:10;stroke-dasharray:none;stroke-opacity:1"
       id="path12104"
       inkscape:connector-curvature="0" /><path
       d="m 65.730073,36.558943 0,2.769182"
       style="fill:none;stroke:#000000;stroke-width:0.99984974;stroke-linecap:square;stroke-linejoin:miter;stroke-miterlimit:10;stroke-dasharray:none;stroke-opacity:1"
       id="path12108"
       inkscape:connector-curvature="0" /><path
       d="m 116.9844,36.558943 0,2.769182"
       style="fill:none;stroke:#000000;stroke-width:0.99984974;stroke-linecap:square;stroke-linejoin:miter;stroke-miterlimit:10;stroke-dasharray:none;stroke-opacity:1"
       id="path12112"
       inkscape:connector-curvature="0" /><path
       d="m 168.23852,36.558943 0,2.769182"
       style="fill:none;stroke:#000000;stroke-width:0.99984974;stroke-linecap:square;stroke-linejoin:miter;stroke-miterlimit:10;stroke-dasharray:none;stroke-opacity:1"
       id="path12116"
       inkscape:connector-curvature="0" /><path
       d="m 219.49264,36.558943 0,2.769182"
       style="fill:none;stroke:#000000;stroke-width:0.99984974;stroke-linecap:square;stroke-linejoin:miter;stroke-miterlimit:10;stroke-dasharray:none;stroke-opacity:1"
       id="path12120"
       inkscape:connector-curvature="0" /><path
       d="m 270.74177,36.558943 0,2.769182"
       style="fill:none;stroke:#000000;stroke-width:0.99984974;stroke-linecap:square;stroke-linejoin:miter;stroke-miterlimit:10;stroke-dasharray:none;stroke-opacity:1"
       id="path12124"
       inkscape:connector-curvature="0" /><path
       d="m 321.99989,36.558943 0,2.769182"
       style="fill:none;stroke:#000000;stroke-width:0.99984974;stroke-linecap:square;stroke-linejoin:miter;stroke-miterlimit:10;stroke-dasharray:none;stroke-opacity:1"
       id="path12128"
       inkscape:connector-curvature="0" /><text
       transform="scale(0.99932027,-1.0006802)"
       style="font-variant:normal;font-weight:normal;font-size:13.99787807px;font-family:Helvetica;-inkscape-font-specification:Helvetica;writing-mode:lr-tb;fill:#262626;fill-opacity:1;fill-rule:nonzero;stroke:none"
       id="text12132"
       x="61.773289"
       y="-20.737095"><tspan
         x="61.773289 101.06548 108.8483 116.63112 124.41393 152.33984 160.12267 167.90547 175.68831 203.62793 211.41075 219.19357 226.97639 254.9023 262.68512 270.46796 278.25076 306.17667 313.9595 321.74231 329.52512"
         y="-20.737095"
         sodipodi:role="line"
         id="tspan12134">010002000300040005000</tspan></text>
<text
       transform="matrix(0,1.0006798,0.99932069,0,0,0)"
       style="font-variant:normal;font-weight:normal;font-size:14.99778843px;font-family:Helvetica;-inkscape-font-specification:Helvetica;writing-mode:lr-tb;fill:#262626;fill-opacity:1;fill-rule:nonzero;stroke:none"
       id="text12136"
       x="95.525269"
       y="11.722464"><tspan
         x="95.525269 105.52879 113.86756 122.20633 130.5451 133.8746 142.21338 146.38277 149.71228 158.05104 166.38982 170.5592 179.72284 184.7171 193.05588 200.55478 204.72415 208.05367 216.43733"
         y="11.722464"
         sodipodi:role="line"
         id="tspan12138">Population Fraction</tspan></text>
<path
       d="m 55.476151,36.558943 0,269.139787"
       style="fill:none;stroke:#000000;stroke-width:0.99984974;stroke-linecap:square;stroke-linejoin:miter;stroke-miterlimit:10;stroke-dasharray:none;stroke-opacity:1"
       id="path12142"
       inkscape:connector-curvature="0" /><path
       d="m 55.476151,36.558943 2.770314,0"
       style="fill:none;stroke:#000000;stroke-width:0.99984974;stroke-linecap:square;stroke-linejoin:miter;stroke-miterlimit:10;stroke-dasharray:none;stroke-opacity:1"
       id="path12146"
       inkscape:connector-curvature="0" /><path
       d="m 55.476151,75.008171 2.770314,0"
       style="fill:none;stroke:#000000;stroke-width:0.99984974;stroke-linecap:square;stroke-linejoin:miter;stroke-miterlimit:10;stroke-dasharray:none;stroke-opacity:1"
       id="path12150"
       inkscape:connector-curvature="0" /><path
       d="m 55.476151,113.4571 2.770314,0"
       style="fill:none;stroke:#000000;stroke-width:0.99984974;stroke-linecap:square;stroke-linejoin:miter;stroke-miterlimit:10;stroke-dasharray:none;stroke-opacity:1"
       id="path12154"
       inkscape:connector-curvature="0" /><path
       d="m 55.476151,151.90623 2.770314,0"
       style="fill:none;stroke:#000000;stroke-width:0.99984974;stroke-linecap:square;stroke-linejoin:miter;stroke-miterlimit:10;stroke-dasharray:none;stroke-opacity:1"
       id="path12158"
       inkscape:connector-curvature="0" /><path
       d="m 55.476151,190.35235 2.770314,0"
       style="fill:none;stroke:#000000;stroke-width:0.99984974;stroke-linecap:square;stroke-linejoin:miter;stroke-miterlimit:10;stroke-dasharray:none;stroke-opacity:1"
       id="path12162"
       inkscape:connector-curvature="0" /><path
       d="m 55.476151,228.80148 2.770314,0"
       style="fill:none;stroke:#000000;stroke-width:0.99984974;stroke-linecap:square;stroke-linejoin:miter;stroke-miterlimit:10;stroke-dasharray:none;stroke-opacity:1"
       id="path12166"
       inkscape:connector-curvature="0" /><path
       d="m 55.476151,267.24961 2.770314,0"
       style="fill:none;stroke:#000000;stroke-width:0.99984974;stroke-linecap:square;stroke-linejoin:miter;stroke-miterlimit:10;stroke-dasharray:none;stroke-opacity:1"
       id="path12170"
       inkscape:connector-curvature="0" /><path
       d="m 55.476151,305.69873 2.770314,0"
       style="fill:none;stroke:#000000;stroke-width:0.99984974;stroke-linecap:square;stroke-linejoin:miter;stroke-miterlimit:10;stroke-dasharray:none;stroke-opacity:1"
       id="path12174"
       inkscape:connector-curvature="0" /><text
       transform="scale(0.99932027,-1.0006802)"
       style="font-variant:normal;font-weight:normal;font-size:13.99787807px;font-family:Helvetica;-inkscape-font-specification:Helvetica;writing-mode:lr-tb;fill:#262626;fill-opacity:1;fill-rule:nonzero;stroke:none"
       id="text12178"
       x="25.719782"
       y="-33.035728"><tspan
         x="25.719782 30.381077 38.163898 42.055305"
         y="-33.035728"
         sodipodi:role="line"
         id="tspan12180">-0.1</tspan><tspan
         x="18.720882 23.382177 31.164997 35.056408 42.83923"
         y="-71.457993"
         sodipodi:role="line"
         id="tspan12182">-0.05</tspan><tspan
         x="42.717262"
         y="-109.88066"
         id="tspan12184">0</tspan><tspan
         x="22.720463 30.503283 34.394695 42.177513"
         y="-148.30333"
         sodipodi:role="line"
         id="tspan12186">0.05</tspan><tspan
         x="30.719261 38.502083 42.393494"
         y="-186.72598"
         sodipodi:role="line"
         id="tspan12188">0.1</tspan><tspan
         x="22.720463 30.503283 34.394695 42.177513"
         y="-225.14867"
         sodipodi:role="line"
         id="tspan12190">0.15</tspan><tspan
         x="30.719261 38.502083 42.393494"
         y="-263.57053"
         sodipodi:role="line"
         id="tspan12192">0.2</tspan><tspan
         x="22.720463 30.503283 34.394695 42.177513"
         y="-301.99319"
         sodipodi:role="line"
         id="tspan12194">0.25</tspan></text>
<path
       d="m 323.67668,52.96099 0,32.26913"
       style="fill:none;stroke:#640000;stroke-width:1.99969947;stroke-linecap:square;stroke-linejoin:miter;stroke-miterlimit:10;stroke-dasharray:none;stroke-opacity:1"
       id="path12398"
       inkscape:connector-curvature="0" /><path
       d="m 298.04812,48.33595 0,31.18709"
       style="fill:none;stroke:#640000;stroke-width:1.99969947;stroke-linecap:square;stroke-linejoin:miter;stroke-miterlimit:10;stroke-dasharray:none;stroke-opacity:1"
       id="path12402"
       inkscape:connector-curvature="0" /><path
       d="m 272.41856,74.48792 0,31.23492"
       style="fill:none;stroke:#640000;stroke-width:1.99969947;stroke-linecap:square;stroke-linejoin:miter;stroke-miterlimit:10;stroke-dasharray:none;stroke-opacity:1"
       id="path12406"
       inkscape:connector-curvature="0" /><path
       d="m 262.16854,77.90194 0,30.93002"
       style="fill:none;stroke:#640000;stroke-width:1.99969947;stroke-linecap:square;stroke-linejoin:miter;stroke-miterlimit:10;stroke-dasharray:none;stroke-opacity:1"
       id="path12410"
       inkscape:connector-curvature="0" /><path
       d="m 251.91851,70.56995 0,31.0471"
       style="fill:none;stroke:#640000;stroke-width:1.99969947;stroke-linecap:square;stroke-linejoin:miter;stroke-miterlimit:10;stroke-dasharray:none;stroke-opacity:1"
       id="path12414"
       inkscape:connector-curvature="0" /><path
       d="m 241.66848,49.80504 0,31.10514"
       style="fill:none;stroke:#640000;stroke-width:1.99969947;stroke-linecap:square;stroke-linejoin:miter;stroke-miterlimit:10;stroke-dasharray:none;stroke-opacity:1"
       id="path12418"
       inkscape:connector-curvature="0" /><path
       d="m 231.41946,81.35198 0,32.5234"
       style="fill:none;stroke:#640000;stroke-width:1.99969947;stroke-linecap:square;stroke-linejoin:miter;stroke-miterlimit:10;stroke-dasharray:none;stroke-opacity:1"
       id="path12422"
       inkscape:connector-curvature="0" /><path
       d="m 221.16943,93.18402 0,30.28888"
       style="fill:none;stroke:#640000;stroke-width:1.99969947;stroke-linecap:square;stroke-linejoin:miter;stroke-miterlimit:10;stroke-dasharray:none;stroke-opacity:1"
       id="path12426"
       inkscape:connector-curvature="0" /><path
       d="m 210.91441,98.81995 0,31.52462"
       style="fill:none;stroke:#640000;stroke-width:1.99969947;stroke-linecap:square;stroke-linejoin:miter;stroke-miterlimit:10;stroke-dasharray:none;stroke-opacity:1"
       id="path12430"
       inkscape:connector-curvature="0" /><path
       d="m 200.66439,108.0204 0,29.98738"
       style="fill:none;stroke:#640000;stroke-width:1.99969947;stroke-linecap:square;stroke-linejoin:miter;stroke-miterlimit:10;stroke-dasharray:none;stroke-opacity:1"
       id="path12434"
       inkscape:connector-curvature="0" /><path
       d="m 190.41436,139.46877 0,31.67953"
       style="fill:none;stroke:#640000;stroke-width:1.99969947;stroke-linecap:square;stroke-linejoin:miter;stroke-miterlimit:10;stroke-dasharray:none;stroke-opacity:1"
       id="path12438"
       inkscape:connector-curvature="0" /><path
       d="m 180.16434,109.16418 0,31.23423"
       style="fill:none;stroke:#640000;stroke-width:1.99969947;stroke-linecap:square;stroke-linejoin:miter;stroke-miterlimit:10;stroke-dasharray:none;stroke-opacity:1"
       id="path12442"
       inkscape:connector-curvature="0" /><path
       d="m 169.91531,113.18792 0,32.02676"
       style="fill:none;stroke:#640000;stroke-width:1.99969947;stroke-linecap:square;stroke-linejoin:miter;stroke-miterlimit:10;stroke-dasharray:none;stroke-opacity:1"
       id="path12446"
       inkscape:connector-curvature="0" /><path
       d="m 159.66528,130.24651 0,30.67184"
       style="fill:none;stroke:#640000;stroke-width:1.99969947;stroke-linecap:square;stroke-linejoin:miter;stroke-miterlimit:10;stroke-dasharray:none;stroke-opacity:1"
       id="path12450"
       inkscape:connector-curvature="0" /><path
       d="m 149.41126,171.03923 0,31.23022"
       style="fill:none;stroke:#640000;stroke-width:1.99969947;stroke-linecap:square;stroke-linejoin:miter;stroke-miterlimit:10;stroke-dasharray:none;stroke-opacity:1"
       id="path12454"
       inkscape:connector-curvature="0" /><path
       d="m 139.16124,187.84765 0,31.87966"
       style="fill:none;stroke:#640000;stroke-width:1.99969947;stroke-linecap:square;stroke-linejoin:miter;stroke-miterlimit:10;stroke-dasharray:none;stroke-opacity:1"
       id="path12458"
       inkscape:connector-curvature="0" /><path
       d="m 128.91121,215.52746 0,31.0511"
       style="fill:none;stroke:#640000;stroke-width:1.99969947;stroke-linecap:square;stroke-linejoin:miter;stroke-miterlimit:10;stroke-dasharray:none;stroke-opacity:1"
       id="path12462"
       inkscape:connector-curvature="0" /><path
       d="m 118.66119,227.58966 0,30.99206"
       style="fill:none;stroke:#640000;stroke-width:1.99969947;stroke-linecap:square;stroke-linejoin:miter;stroke-miterlimit:10;stroke-dasharray:none;stroke-opacity:1"
       id="path12466"
       inkscape:connector-curvature="0" /><path
       d="m 108.40716,214.14852 0,32.85533"
       style="fill:none;stroke:#640000;stroke-width:1.99969947;stroke-linecap:square;stroke-linejoin:miter;stroke-miterlimit:10;stroke-dasharray:none;stroke-opacity:1"
       id="path12470"
       inkscape:connector-curvature="0" /><path
       d="m 98.157236,218.25031 0,31.18019"
       style="fill:none;stroke:#640000;stroke-width:1.99969947;stroke-linecap:square;stroke-linejoin:miter;stroke-miterlimit:10;stroke-dasharray:none;stroke-opacity:1"
       id="path12474"
       inkscape:connector-curvature="0" /><path
       d="m 87.90721,195.17663 0,30.68585"
       style="fill:none;stroke:#640000;stroke-width:1.99969947;stroke-linecap:square;stroke-linejoin:miter;stroke-miterlimit:10;stroke-dasharray:none;stroke-opacity:1"
       id="path12478"
       inkscape:connector-curvature="0" /><path
       d="m 77.657285,191.88339 0,31.15617"
       style="fill:none;stroke:#640000;stroke-width:1.99969947;stroke-linecap:square;stroke-linejoin:miter;stroke-miterlimit:10;stroke-dasharray:none;stroke-opacity:1"
       id="path12482"
       inkscape:connector-curvature="0" /><path
       d="m 67.40686,110.82431 0,31.03809"
       style="fill:none;stroke:#640000;stroke-width:1.99969947;stroke-linecap:square;stroke-linejoin:miter;stroke-miterlimit:10;stroke-dasharray:none;stroke-opacity:1"
       id="path12486"
       inkscape:connector-curvature="0" /><path
       d="m 57.152938,115.8157 0,31.25424"
       style="fill:none;stroke:#640000;stroke-width:1.99969947;stroke-linecap:square;stroke-linejoin:miter;stroke-miterlimit:10;stroke-dasharray:none;stroke-opacity:1"
       id="path12490"
       inkscape:connector-curvature="0" /><path
       inkscape:connector-curvature="0"
       id="path12492"
       style="fill:none;stroke:#640000;stroke-width:1.99969995;stroke-linecap:square;stroke-linejoin:miter;stroke-miterlimit:10;stroke-dasharray:none;stroke-opacity:1"
       d="m 323.67679,69.098 -25.629,-5.1679 -25.629,26.175 -10.25,3.266 -10.25,-7.277 -10.25,-20.739 -10.25,32.2578 -10.25,10.7151 -10.254,6.254 -10.25,8.43 -10.25,32.297 -10.25,-30.528 -10.25,4.418 -10.25,16.383 -10.254,41.07 -10.25,17.137 -10.25,27.262 -10.25,12.035 -10.254,-12.508 -10.249903,3.262 -10.25,-23.32 -10.25,-3.059 -10.25,-81.113 -10.2531,5.097"
       sodipodi:nodetypes="cccccccccccccccccccccccc" /><path
       inkscape:connector-curvature="0"
       id="path12494"
       style="fill:#ffffff;fill-opacity:1;fill-rule:nonzero;stroke:none"
       d="m 226.363,212.86579 89.602,0 0,85.82911 -89.602,0 0,-85.82911 z" /><path
       inkscape:connector-curvature="0"
       id="path12496"
       style="fill:none;stroke:#000000;stroke-width:1.83535671;stroke-linecap:butt;stroke-linejoin:miter;stroke-miterlimit:4;stroke-dasharray:none;stroke-opacity:1"
       d="m 226.48068,214.10133 89.36664,0 0,84.47589 -89.36664,0 0,-84.47589 z" /><text
       transform="scale(0.99932027,-1.0006802)"
       style="font-variant:normal;font-weight:normal;font-size:12.99805832px;font-family:Helvetica;-inkscape-font-specification:Helvetica;writing-mode:lr-tb;fill:#000000;fill-opacity:1;fill-rule:nonzero;stroke:none"
       id="text12500"
       x="274.56161"
       y="-282.24103"><tspan
         x="274.56161 281.78854 289.01547 289.01553 299.85577"
         y="-282.24103"
         sodipodi:role="line"
         id="tspan12502">185 G</tspan></text>
<text
       transform="scale(0.99932027,-1.0006802)"
       style="font-variant:normal;font-weight:normal;font-size:12.99805832px;font-family:Helvetica;-inkscape-font-specification:Helvetica;writing-mode:lr-tb;fill:#000000;fill-opacity:1;fill-rule:nonzero;stroke:none"
       id="text12510"
       x="278.53534"
       y="-262.49945"><tspan
         x="278.53534 285.76224 292.98917 296.60263"
         y="-262.49945"
         sodipodi:role="line"
         id="tspan12512">67 G</tspan></text>
<text
       transform="scale(0.99932027,-1.0006802)"
       style="font-variant:normal;font-weight:normal;font-size:12.99805832px;font-family:Helvetica;-inkscape-font-specification:Helvetica;writing-mode:lr-tb;fill:#000000;fill-opacity:1;fill-rule:nonzero;stroke:none"
       id="text12520"
       x="278.57135"
       y="-242.75787"><tspan
         x="278.57135 285.79828 293.02521 296.63864"
         y="-242.75787"
         sodipodi:role="line"
         id="tspan12522">55 G</tspan></text>
<path
       d="m 233.8129,246.9258 37.24965,0"
       style="fill:none;stroke:#640000;stroke-width:1.99969947;stroke-linecap:square;stroke-linejoin:miter;stroke-miterlimit:10;stroke-dasharray:none;stroke-opacity:1"
       id="path12526"
       inkscape:connector-curvature="0" /><path
       inkscape:connector-curvature="0"
       id="path12528"
       style="fill:#640000;fill-opacity:1;fill-rule:nonzero;stroke:none;stroke-width:1.20000005;stroke-miterlimit:4;stroke-dasharray:none;stroke-opacity:1"
       d="m 325.92279,71.566 c -0.637,0.6328 -1.59,1.032 -2.488,1.032 -0.899,0 -1.852,-0.3992 -2.488,-1.032 -0.633,-0.6359 -1.028,-1.593 -1.028,-2.4922 0,-0.8976 0.395,-1.8547 1.028,-2.4879 0.636,-0.6371 1.589,-1.0308 2.488,-1.0308 0.898,0 1.851,0.3937 2.488,1.0308 0.633,0.6332 1.027,1.5903 1.027,2.4879 0,0.8992 -0.394,1.8563 -1.027,2.4922 z" /><path
       inkscape:connector-curvature="0"
       id="path12532"
       style="fill:#640000;fill-opacity:1;fill-rule:nonzero;stroke:none;stroke-width:1.20000005;stroke-miterlimit:4;stroke-dasharray:none;stroke-opacity:1"
       d="m 300.94279,66.5621 c -0.633,0.6328 -1.59,1.032 -2.489,1.032 -0.898,0 -1.851,-0.3992 -2.484,-1.032 -0.637,-0.6359 -1.031,-1.593 -1.031,-2.4922 0,-0.8937 0.394,-1.8508 1.031,-2.4879 0.633,-0.6371 1.586,-1.0308 2.484,-1.0308 0.899,0 1.856,0.3937 2.489,1.0308 0.632,0.6371 1.031,1.5942 1.031,2.4879 0,0.8992 -0.399,1.8563 -1.031,2.4922 z" /><path
       inkscape:connector-curvature="0"
       id="path12536"
       style="fill:#640000;fill-opacity:1;fill-rule:nonzero;stroke:none;stroke-width:1.20000005;stroke-miterlimit:4;stroke-dasharray:none;stroke-opacity:1"
       d="m 274.96179,92.5781 c -0.633,0.6328 -1.59,1.0309 -2.484,1.0309 -0.899,0 -1.852,-0.3981 -2.489,-1.0309 -0.632,-0.6371 -1.031,-1.5941 -1.031,-2.4922 0,-0.898 0.399,-1.8558 1.031,-2.4879 0.637,-0.6371 1.59,-1.0359 2.489,-1.0359 0.894,0 1.851,0.3988 2.484,1.0359 0.637,0.6321 1.031,1.5899 1.031,2.4879 0,0.8981 -0.394,1.8551 -1.031,2.4922 z" /><path
       inkscape:connector-curvature="0"
       id="path12540"
       style="fill:#640000;fill-opacity:1;fill-rule:nonzero;stroke:none;stroke-width:1.20000005;stroke-miterlimit:4;stroke-dasharray:none;stroke-opacity:1"
       d="m 264.97379,95.5781 c -0.637,0.6367 -1.59,1.0309 -2.488,1.0309 -0.899,0 -1.852,-0.3942 -2.489,-1.0309 -0.632,-0.6371 -1.027,-1.5902 -1.027,-2.4883 0,-0.8988 0.395,-1.8558 1.027,-2.4918 0.637,-0.6371 1.59,-1.032 2.489,-1.032 0.898,0 1.851,0.3949 2.488,1.032 0.633,0.636 1.027,1.593 1.027,2.4918 0,0.8981 -0.394,1.8512 -1.027,2.4883 z" /><path
       inkscape:connector-curvature="0"
       id="path12544"
       style="fill:#640000;fill-opacity:1;fill-rule:nonzero;stroke:none;stroke-width:1.20000005;stroke-miterlimit:4;stroke-dasharray:none;stroke-opacity:1"
       d="m 253.98179,88.5738 c -0.633,0.6371 -1.59,1.0313 -2.489,1.0313 -0.898,0 -1.851,-0.3942 -2.484,-1.0313 -0.637,-0.6359 -1.031,-1.5937 -1.031,-2.4879 0,-0.898 0.394,-1.8558 1.031,-2.4918 0.633,-0.6332 1.586,-1.032 2.484,-1.032 0.899,0 1.856,0.3988 2.489,1.032 0.633,0.636 1.031,1.5938 1.031,2.4918 0,0.8942 -0.398,1.852 -1.031,2.4879 z" /><path
       inkscape:connector-curvature="0"
       id="path12548"
       style="fill:#640000;fill-opacity:1;fill-rule:nonzero;stroke:none;stroke-width:1.20000005;stroke-miterlimit:4;stroke-dasharray:none;stroke-opacity:1"
       d="m 243.98879,67.5621 c -0.632,0.6367 -1.589,1.032 -2.488,1.032 -0.894,0 -1.851,-0.3953 -2.484,-1.032 -0.637,-0.6359 -1.031,-1.5891 -1.031,-2.4883 0,-0.8976 0.394,-1.8547 1.031,-2.4918 0.633,-0.6332 1.59,-1.0308 2.484,-1.0308 0.899,0 1.856,0.3976 2.488,1.0308 0.637,0.6371 1.032,1.5942 1.032,2.4918 0,0.8992 -0.399,1.8524 -1.032,2.4883 z" /><path
       inkscape:connector-curvature="0"
       id="path12552"
       style="fill:#640000;fill-opacity:1;fill-rule:nonzero;stroke:none;stroke-width:1.20000005;stroke-miterlimit:4;stroke-dasharray:none;stroke-opacity:1"
       d="m 233.99679,100.582 c -0.632,0.633 -1.59,1.031 -2.484,1.031 -0.898,0 -1.856,-0.398 -2.488,-1.031 -0.637,-0.6371 -1.032,-1.5941 -1.032,-2.4922 0,-0.8988 0.395,-1.8558 1.032,-2.4878 0.632,-0.6372 1.59,-1.036 2.488,-1.036 0.894,0 1.852,0.3988 2.484,1.036 0.637,0.632 1.032,1.589 1.032,2.4878 0,0.8981 -0.395,1.8551 -1.032,2.4922 z" /><path
       inkscape:connector-curvature="0"
       id="path12556"
       style="fill:#640000;fill-opacity:1;fill-rule:nonzero;stroke:none;stroke-width:1.20000005;stroke-miterlimit:4;stroke-dasharray:none;stroke-opacity:1"
       d="m 224.00479,110.586 c -0.633,0.637 -1.59,1.031 -2.484,1.031 -0.899,0 -1.856,-0.394 -2.489,-1.031 -0.636,-0.637 -1.031,-1.59 -1.031,-2.488 0,-0.899 0.395,-1.856 1.031,-2.493 0.633,-0.636 1.59,-1.031 2.489,-1.031 0.894,0 1.851,0.395 2.484,1.031 0.637,0.637 1.031,1.594 1.031,2.493 0,0.898 -0.394,1.851 -1.031,2.488 z" /><path
       inkscape:connector-curvature="0"
       id="path12560"
       style="fill:#640000;fill-opacity:1;fill-rule:nonzero;stroke:none;stroke-width:1.20000005;stroke-miterlimit:4;stroke-dasharray:none;stroke-opacity:1"
       d="m 213.01679,116.59 c -0.637,0.633 -1.59,1.031 -2.488,1.031 -0.899,0 -1.852,-0.398 -2.489,-1.031 -0.633,-0.637 -1.027,-1.594 -1.027,-2.492 0,-0.899 0.394,-1.852 1.027,-2.489 0.637,-0.636 1.59,-1.031 2.489,-1.031 0.898,0 1.851,0.395 2.488,1.031 0.633,0.637 1.027,1.59 1.027,2.489 0,0.898 -0.394,1.855 -1.027,2.492 z" /><path
       inkscape:connector-curvature="0"
       id="path12564"
       style="fill:#640000;fill-opacity:1;fill-rule:nonzero;stroke:none;stroke-width:1.20000005;stroke-miterlimit:4;stroke-dasharray:none;stroke-opacity:1"
       d="m 203.02479,125.594 c -0.637,0.636 -1.59,1.031 -2.489,1.031 -0.898,0 -1.851,-0.395 -2.488,-1.031 -0.633,-0.637 -1.027,-1.594 -1.027,-2.492 0,-0.899 0.394,-1.852 1.027,-2.489 0.637,-0.636 1.59,-1.031 2.488,-1.031 0.899,0 1.852,0.395 2.489,1.031 0.632,0.637 1.027,1.59 1.027,2.489 0,0.898 -0.395,1.855 -1.027,2.492 z" /><path
       inkscape:connector-curvature="0"
       id="path12568"
       style="fill:#640000;fill-opacity:1;fill-rule:nonzero;stroke:none;stroke-width:1.20000005;stroke-miterlimit:4;stroke-dasharray:none;stroke-opacity:1"
       d="m 193.03179,157.609 c -0.636,0.637 -1.589,1.036 -2.488,1.036 -0.894,0 -1.851,-0.399 -2.484,-1.036 -0.637,-0.632 -1.031,-1.589 -1.031,-2.488 0,-0.898 0.394,-1.855 1.031,-2.492 0.633,-0.633 1.59,-1.031 2.484,-1.031 0.899,0 1.852,0.398 2.488,1.031 0.633,0.637 1.028,1.594 1.028,2.492 0,0.899 -0.395,1.856 -1.028,2.488 z" /><path
       inkscape:connector-curvature="0"
       id="path12572"
       style="fill:#640000;fill-opacity:1;fill-rule:nonzero;stroke:none;stroke-width:1.20000005;stroke-miterlimit:4;stroke-dasharray:none;stroke-opacity:1"
       d="m 183.03979,127.594 c -0.633,0.636 -1.59,1.035 -2.488,1.035 -0.895,0 -1.852,-0.399 -2.484,-1.035 -0.637,-0.633 -1.032,-1.59 -1.032,-2.489 0,-0.898 0.395,-1.855 1.032,-2.492 0.632,-0.633 1.589,-1.031 2.484,-1.031 0.898,0 1.855,0.398 2.488,1.031 0.637,0.637 1.032,1.594 1.032,2.492 0,0.899 -0.395,1.856 -1.032,2.489 z" /><path
       inkscape:connector-curvature="0"
       id="path12576"
       style="fill:#640000;fill-opacity:1;fill-rule:nonzero;stroke:none;stroke-width:1.20000005;stroke-miterlimit:4;stroke-dasharray:none;stroke-opacity:1"
       d="m 172.04779,131.598 c -0.633,0.632 -1.59,1.031 -2.484,1.031 -0.899,0 -1.856,-0.399 -2.489,-1.031 -0.636,-0.637 -1.031,-1.594 -1.031,-2.493 0,-0.898 0.395,-1.855 1.031,-2.488 0.633,-0.637 1.59,-1.031 2.489,-1.031 0.894,0 1.851,0.394 2.484,1.031 0.637,0.633 1.031,1.59 1.031,2.488 0,0.899 -0.394,1.856 -1.031,2.493 z" /><path
       inkscape:connector-curvature="0"
       id="path12580"
       style="fill:#640000;fill-opacity:1;fill-rule:nonzero;stroke:none;stroke-width:1.20000005;stroke-miterlimit:4;stroke-dasharray:none;stroke-opacity:1"
       d="m 162.05579,147.605 c -0.633,0.633 -1.59,1.032 -2.484,1.032 -0.899,0 -1.856,-0.399 -2.489,-1.032 -0.633,-0.636 -1.031,-1.593 -1.031,-2.492 0,-0.894 0.398,-1.851 1.031,-2.488 0.633,-0.637 1.59,-1.031 2.489,-1.031 0.894,0 1.851,0.394 2.484,1.031 0.637,0.637 1.031,1.594 1.031,2.488 0,0.899 -0.394,1.856 -1.031,2.492 z" /><path
       inkscape:connector-curvature="0"
       id="path12584"
       style="fill:#640000;fill-opacity:1;fill-rule:nonzero;stroke:none;stroke-width:1.20000005;stroke-miterlimit:4;stroke-dasharray:none;stroke-opacity:1"
       d="m 152.06379,189.629 c -0.633,0.633 -1.586,1.031 -2.485,1.031 -0.898,0 -1.851,-0.398 -2.488,-1.031 -0.633,-0.637 -1.031,-1.594 -1.031,-2.492 0,-0.899 0.398,-1.856 1.031,-2.489 0.637,-0.636 1.59,-1.031 2.488,-1.031 0.899,0 1.852,0.395 2.485,1.031 0.636,0.633 1.031,1.59 1.031,2.489 0,0.898 -0.395,1.855 -1.031,2.492 z" /><path
       inkscape:connector-curvature="0"
       id="path12588"
       style="fill:#640000;fill-opacity:1;fill-rule:nonzero;stroke:none;stroke-width:1.20000005;stroke-miterlimit:4;stroke-dasharray:none;stroke-opacity:1"
       d="m 142.07479,206.637 c -0.636,0.636 -1.589,1.031 -2.488,1.031 -0.898,0 -1.851,-0.395 -2.488,-1.031 -0.633,-0.637 -1.027,-1.594 -1.027,-2.492 0,-0.899 0.394,-1.852 1.027,-2.489 0.637,-0.636 1.59,-1.031 2.488,-1.031 0.899,0 1.852,0.395 2.488,1.031 0.633,0.637 1.028,1.59 1.028,2.489 0,0.898 -0.395,1.855 -1.028,2.492 z" /><path
       inkscape:connector-curvature="0"
       id="path12592"
       style="fill:#640000;fill-opacity:1;fill-rule:nonzero;stroke:none;stroke-width:1.20000005;stroke-miterlimit:4;stroke-dasharray:none;stroke-opacity:1"
       d="m 131.08279,233.652 c -0.633,0.633 -1.59,1.032 -2.488,1.032 -0.895,0 -1.852,-0.399 -2.484,-1.032 -0.637,-0.636 -1.032,-1.593 -1.032,-2.492 0,-0.898 0.395,-1.851 1.032,-2.488 0.632,-0.637 1.589,-1.031 2.484,-1.031 0.898,0 1.855,0.394 2.488,1.031 0.637,0.637 1.032,1.59 1.032,2.488 0,0.899 -0.395,1.856 -1.032,2.492 z" /><path
       inkscape:connector-curvature="0"
       id="path12596"
       style="fill:#640000;fill-opacity:1;fill-rule:nonzero;stroke:none;stroke-width:1.20000005;stroke-miterlimit:4;stroke-dasharray:none;stroke-opacity:1"
       d="m 121.09079,245.656 c -0.633,0.637 -1.59,1.032 -2.488,1.032 -0.895,0 -1.852,-0.395 -2.485,-1.032 -0.636,-0.633 -1.031,-1.59 -1.031,-2.488 0,-0.898 0.395,-1.856 1.031,-2.492 0.633,-0.633 1.59,-1.031 2.485,-1.031 0.898,0 1.855,0.398 2.488,1.031 0.637,0.636 1.031,1.594 1.031,2.492 0,0.898 -0.394,1.855 -1.031,2.488 z" /><path
       inkscape:connector-curvature="0"
       id="path12600"
       style="fill:#640000;fill-opacity:1;fill-rule:nonzero;stroke:none;stroke-width:1.20000005;stroke-miterlimit:4;stroke-dasharray:none;stroke-opacity:1"
       d="m 111.09879,232.652 c -0.633,0.633 -1.59,1.032 -2.484,1.032 -0.899,0 -1.856,-0.399 -2.489,-1.032 -0.637,-0.636 -1.031,-1.593 -1.031,-2.492 0,-0.898 0.394,-1.855 1.031,-2.488 0.633,-0.637 1.59,-1.035 2.489,-1.035 0.894,0 1.851,0.398 2.484,1.035 0.637,0.633 1.031,1.59 1.031,2.488 0,0.899 -0.394,1.856 -1.031,2.492 z" /><path
       inkscape:connector-curvature="0"
       id="path12604"
       style="fill:#640000;fill-opacity:1;fill-rule:nonzero;stroke:none;stroke-width:1.20000005;stroke-miterlimit:4;stroke-dasharray:none;stroke-opacity:1"
       d="m 101.10689,236.652 c -0.6332,0.637 -1.590303,1.032 -2.485203,1.032 -0.898,0 -1.8551,-0.395 -2.4879,-1.032 -0.6332,-0.636 -1.0308,-1.59 -1.0308,-2.488 0,-0.898 0.3976,-1.855 1.0308,-2.492 0.6328,-0.633 1.5899,-1.031 2.4879,-1.031 0.8949,0 1.852003,0.398 2.485203,1.031 0.6359,0.637 1.0309,1.594 1.0309,2.492 0,0.898 -0.395,1.852 -1.0309,2.488 z" /><path
       inkscape:connector-curvature="0"
       id="path12608"
       style="fill:#640000;fill-opacity:1;fill-rule:nonzero;stroke:none;stroke-width:1.20000005;stroke-miterlimit:4;stroke-dasharray:none;stroke-opacity:1"
       d="m 90.117787,212.641 c -0.6359,0.632 -1.589,1.031 -2.4879,1.031 -0.898,0 -1.8511,-0.399 -2.4883,-1.031 -0.6328,-0.637 -1.0269,-1.594 -1.0269,-2.493 0,-0.898 0.3941,-1.855 1.0269,-2.488 0.6372,-0.637 1.5903,-1.031 2.4883,-1.031 0.8989,0 1.852,0.394 2.4879,1.031 0.6328,0.633 1.0281,1.59 1.0281,2.488 0,0.899 -0.3953,1.856 -1.0281,2.493 z" /><path
       inkscape:connector-curvature="0"
       id="path12612"
       style="fill:#640000;fill-opacity:1;fill-rule:nonzero;stroke:none;stroke-width:1.20000005;stroke-miterlimit:4;stroke-dasharray:none;stroke-opacity:1"
       d="m 80.125587,209.637 c -0.6367,0.636 -1.5898,1.035 -2.4879,1.035 -0.8988,0 -1.8519,-0.399 -2.4879,-1.035 -0.6332,-0.633 -1.0281,-1.59 -1.0281,-2.489 0,-0.898 0.3949,-1.855 1.0281,-2.492 0.636,-0.633 1.5891,-1.031 2.4879,-1.031 0.8981,0 1.8512,0.398 2.4879,1.031 0.6332,0.637 1.0313,1.594 1.0313,2.492 0,0.899 -0.3981,1.856 -1.0313,2.489 z" /><path
       inkscape:connector-curvature="0"
       id="path12616"
       style="fill:#640000;fill-opacity:1;fill-rule:nonzero;stroke:none;stroke-width:1.20000005;stroke-miterlimit:4;stroke-dasharray:none;stroke-opacity:1"
       d="m 70.133787,128.598 c -0.6332,0.632 -1.5898,1.031 -2.4879,1.031 -0.8953,0 -1.8519,-0.399 -2.489,-1.031 -0.6321,-0.637 -1.027,-1.594 -1.027,-2.493 0,-0.898 0.3949,-1.855 1.027,-2.492 0.6371,-0.633 1.5937,-1.031 2.489,-1.031 0.8981,0 1.8547,0.398 2.4879,1.031 0.6371,0.637 1.0309,1.594 1.0309,2.492 0,0.899 -0.3938,1.856 -1.0309,2.493 z" /><path
       inkscape:connector-curvature="0"
       id="path12620"
       style="fill:#640000;fill-opacity:1;fill-rule:nonzero;stroke:none;stroke-width:1.20000005;stroke-miterlimit:4;stroke-dasharray:none;stroke-opacity:1"
       d="m 60.141587,133.598 c -0.6328,0.636 -1.5898,1.031 -2.4878,1.031 -0.895,0 -1.852,-0.395 -2.4848,-1.031 -0.6371,-0.637 -1.0313,-1.59 -1.0313,-2.489 0,-0.898 0.3942,-1.855 1.0313,-2.492 0.6328,-0.633 1.5898,-1.031 2.4848,-1.031 0.898,0 1.855,0.398 2.4878,1.031 0.6372,0.637 1.0313,1.594 1.0313,2.492 0,0.899 -0.3941,1.852 -1.0313,2.489 z" /><path
       inkscape:connector-curvature="0"
       id="path12624"
       style="fill:#640000;fill-opacity:1;fill-rule:nonzero;stroke:none;stroke-opacity:1;stroke-width:1.2;stroke-miterlimit:4;stroke-dasharray:none"
       d="m 255.328,249.66 c -0.633,0.637 -1.59,1.031 -2.488,1.031 -0.895,0 -1.852,-0.394 -2.485,-1.031 -0.636,-0.637 -1.031,-1.594 -1.031,-2.492 0,-0.898 0.395,-1.852 1.031,-2.488 0.633,-0.637 1.59,-1.032 2.485,-1.032 0.898,0 1.855,0.395 2.488,1.032 0.637,0.636 1.031,1.59 1.031,2.488 0,0.898 -0.394,1.855 -1.031,2.492 z" /><path
       inkscape:connector-curvature="0"
       id="path12840"
       style="fill:#ffffff;fill-opacity:1;fill-rule:nonzero;stroke:none"
       d="m 325.77,118.484 c 0,0.172 -0.098,0.594 -0.215,0.942 -0.117,0.347 -0.2,0.64 -0.188,0.652 0.02,0.016 5.996,1.484 7.16,1.758 0.328,0.078 0.453,0.078 0.477,0.008 0.062,-0.188 0.449,-1.762 0.43,-1.77 -0.008,-0.004 -1.688,-0.418 -3.735,-0.914 -2.047,-0.5 -3.769,-0.922 -3.828,-0.945 -0.07,-0.024 -0.101,0.062 -0.101,0.269 z" /><path
       inkscape:connector-curvature="0"
       id="path12842"
       style="fill:none;stroke:#ffffff;stroke-width:0.24000001;stroke-linecap:butt;stroke-linejoin:miter;stroke-miterlimit:10;stroke-dasharray:none;stroke-opacity:1"
       d="m 325.77,118.484 c 0,0.172 -0.098,0.594 -0.215,0.942 -0.117,0.347 -0.2,0.64 -0.188,0.652 0.02,0.016 5.996,1.484 7.16,1.758 0.328,0.078 0.453,0.078 0.477,0.008 0.062,-0.188 0.449,-1.762 0.43,-1.77 -0.008,-0.004 -1.688,-0.418 -3.735,-0.914 -2.047,-0.5 -3.769,-0.922 -3.828,-0.945 -0.07,-0.024 -0.101,0.062 -0.101,0.269 z" /><path
       inkscape:connector-curvature="0"
       id="path12844"
       style="fill:#ffffff;fill-opacity:1;fill-rule:nonzero;stroke:none"
       d="m 326.133,122.438 -0.348,0.031 -0.039,0.812 c -0.019,0.446 -0.066,0.883 -0.105,0.969 -0.067,0.156 -0.024,0.16 1.511,0.105 0.871,-0.031 2.59,-0.054 3.821,-0.054 l 2.238,0 0,-1.922 -3.367,0.012 c -1.852,0.007 -3.52,0.031 -3.711,0.047 z" /><path
       inkscape:connector-curvature="0"
       id="path12846"
       style="fill:none;stroke:#ffffff;stroke-width:0.24000001;stroke-linecap:butt;stroke-linejoin:miter;stroke-miterlimit:10;stroke-dasharray:none;stroke-opacity:1"
       d="m 326.133,122.438 -0.348,0.031 -0.039,0.812 c -0.019,0.446 -0.066,0.883 -0.105,0.969 -0.067,0.156 -0.024,0.16 1.511,0.105 0.871,-0.031 2.59,-0.054 3.821,-0.054 l 2.238,0 0,-1.922 -3.367,0.012 c -1.852,0.007 -3.52,0.031 -3.711,0.047 z" /><path
       d="m 332.68362,36.562145 0,269.144595"
       style="fill:none;stroke:#000000;stroke-width:0.99984974;stroke-linecap:square;stroke-linejoin:miter;stroke-miterlimit:10;stroke-dasharray:none;stroke-opacity:1"
       id="path12850"
       inkscape:connector-curvature="0" /><path
       inkscape:connector-curvature="0"
       id="path9986"
       style="fill:none;stroke:#190000;stroke-width:2;stroke-linecap:square;stroke-linejoin:miter;stroke-miterlimit:10;stroke-dasharray:4,8;stroke-opacity:1;stroke-dashoffset:0"
       d="m 233.8129,227.7258 37.24965,0" /><text
       y="-223.57094"
       x="281.7735"
       id="text9992"
       style="font-variant:normal;font-weight:normal;font-size:12.99805832px;font-family:Helvetica;-inkscape-font-specification:Helvetica;writing-mode:lr-tb;fill:#000000;fill-opacity:1;fill-rule:nonzero;stroke:none"
       transform="scale(0.99932027,-1.0006802)"><tspan
         id="tspan9994"
         sodipodi:role="line"
         y="-223.57094"
         x="281.7735">0 G</tspan></text>
<path
       d="m 58.4639,113.70437 274.38693,0"
       style="fill:none;stroke:#190000;stroke-width:2;stroke-linecap:square;stroke-linejoin:miter;stroke-miterlimit:10;stroke-dasharray:4, 8;stroke-dashoffset:0;stroke-opacity:1"
       id="path10020"
       inkscape:connector-curvature="0" /></g><g
     inkscape:groupmode="layer"
     id="layer4"
     inkscape:label="Bottom" /><g
     inkscape:groupmode="layer"
     id="layer5"
     inkscape:label="Middle"><path
       inkscape:connector-curvature="0"
       id="path12628"
       style="fill:#fa3200;fill-opacity:1;fill-rule:nonzero;stroke:none"
       d="m 406.70482,240.5125 c -0.79625,-0.79625 -1.9875,-1.29375 -3.11,-1.29375 -1.12375,0 -2.315,0.4975 -3.11,1.29375 -0.79125,0.79125 -1.285,1.9875 -1.285,3.11 0,1.12375 0.49375,2.32 1.285,3.11625 0.795,0.79 1.98625,1.28875 3.11,1.28875 1.1225,0 2.31375,-0.49875 3.11,-1.28875 0.79125,-0.79625 1.28375,-1.9925 1.28375,-3.11625 0,-1.1225 -0.4925,-2.31875 -1.28375,-3.11 z" /><path
       inkscape:connector-curvature="0"
       id="path12632"
       style="fill:#fa3200;fill-opacity:1;fill-rule:nonzero;stroke:none"
       d="m 375.47982,207.99375 c -0.79125,-0.79125 -1.9875,-1.29 -3.11125,-1.29 -1.1225,0 -2.31375,0.49875 -3.105,1.29 -0.79625,0.795 -1.28875,1.99125 -1.28875,3.115 0,1.1175 0.4925,2.31375 1.28875,3.11 0.79125,0.79625 1.9825,1.28875 3.105,1.28875 1.12375,0 2.32,-0.4925 3.11125,-1.28875 0.79,-0.79625 1.28875,-1.9925 1.28875,-3.11 0,-1.12375 -0.49875,-2.32 -1.28875,-3.115 z" /><path
       inkscape:connector-curvature="0"
       id="path12636"
       style="fill:#fa3200;fill-opacity:1;fill-rule:nonzero;stroke:none"
       d="m 343.00357,241.7625 c -0.79125,-0.79625 -1.9875,-1.28875 -3.105,-1.28875 -1.12375,0 -2.315,0.4925 -3.11125,1.28875 -0.79,0.79125 -1.28875,1.9875 -1.28875,3.11 0,1.12375 0.49875,2.32 1.28875,3.11625 0.79625,0.79 1.9875,1.28875 3.11125,1.28875 1.1175,0 2.31375,-0.49875 3.105,-1.28875 0.79625,-0.79625 1.28875,-1.9925 1.28875,-3.11625 0,-1.1225 -0.4925,-2.31875 -1.28875,-3.11 z" /><path
       inkscape:connector-curvature="0"
       id="path12640"
       style="fill:#fa3200;fill-opacity:1;fill-rule:nonzero;stroke:none"
       d="m 330.51857,224.2525 c -0.79625,-0.795 -1.9875,-1.28875 -3.11,-1.28875 -1.12375,0 -2.315,0.49375 -3.11125,1.28875 -0.79,0.79625 -1.28375,1.9875 -1.28375,3.11125 0,1.1225 0.49375,2.31875 1.28375,3.115 0.79625,0.79125 1.9875,1.28875 3.11125,1.28875 1.1225,0 2.31375,-0.4975 3.11,-1.28875 0.79125,-0.79625 1.28375,-1.9925 1.28375,-3.115 0,-1.12375 -0.4925,-2.315 -1.28375,-3.11125 z" /><path
       inkscape:connector-curvature="0"
       id="path12644"
       style="fill:#fa3200;fill-opacity:1;fill-rule:nonzero;stroke:none"
       d="m 316.77857,229.2525 c -0.79125,-0.79 -1.9875,-1.28875 -3.11125,-1.28875 -1.1225,0 -2.31375,0.49875 -3.105,1.28875 -0.79625,0.79625 -1.28875,1.9925 -1.28875,3.11625 0,1.1225 0.4925,2.31875 1.28875,3.115 0.79125,0.79125 1.9875,1.28375 3.105,1.28375 1.12375,0 2.32,-0.4925 3.11125,-1.28375 0.79125,-0.79625 1.28875,-1.9925 1.28875,-3.115 0,-1.12375 -0.4975,-2.32 -1.28875,-3.11625 z" /><path
       inkscape:connector-curvature="0"
       id="path12648"
       style="fill:#fa3200;fill-opacity:1;fill-rule:nonzero;stroke:none"
       d="m 304.28732,225.5025 c -0.79,-0.795 -1.98625,-1.28875 -3.11,-1.28875 -1.1175,0 -2.31375,0.49375 -3.105,1.28875 -0.79625,0.79625 -1.28875,1.9925 -1.28875,3.11625 0,1.1225 0.4925,2.31375 1.28875,3.11 0.79125,0.79625 1.9875,1.28875 3.105,1.28875 1.12375,0 2.32,-0.4925 3.11,-1.28875 0.79125,-0.79625 1.29,-1.9875 1.29,-3.11 0,-1.12375 -0.49375,-2.32 -1.29,-3.11625 z" /><path
       inkscape:connector-curvature="0"
       id="path12652"
       style="fill:#fa3200;fill-opacity:1;fill-rule:nonzero;stroke:none"
       d="m 291.79732,211.7475 c -0.79,-0.795 -1.9875,-1.29375 -3.105,-1.29375 -1.1225,0 -2.32,0.49875 -3.11,1.29375 -0.79625,0.79125 -1.29,1.9875 -1.29,3.11125 0,1.1225 0.49375,2.31875 1.29,3.11 0.79,0.79625 1.9875,1.29375 3.11,1.29375 1.1175,0 2.315,-0.4975 3.105,-1.29375 0.79625,-0.79125 1.29,-1.9875 1.29,-3.11 0,-1.12375 -0.49375,-2.32 -1.29,-3.11125 z" /><path
       inkscape:connector-curvature="0"
       id="path12656"
       style="fill:#fa3200;fill-opacity:1;fill-rule:nonzero;stroke:none"
       d="m 279.30732,201.73875 c -0.79125,-0.79125 -1.9875,-1.29 -3.105,-1.29 -1.12375,0 -2.32,0.49875 -3.11125,1.29 -0.795,0.795 -1.28875,1.99125 -1.28875,3.115 0,1.1225 0.49375,2.31875 1.28875,3.11 0.79125,0.79625 1.9875,1.28875 3.11125,1.28875 1.1175,0 2.31375,-0.4925 3.105,-1.28875 0.79625,-0.79125 1.28875,-1.9875 1.28875,-3.11 0,-1.12375 -0.4925,-2.32 -1.28875,-3.115 z" /><path
       inkscape:connector-curvature="0"
       id="path12660"
       style="fill:#fa3200;fill-opacity:1;fill-rule:nonzero;stroke:none"
       d="m 265.57232,184.23375 c -0.79625,-0.79625 -1.9875,-1.29375 -3.11,-1.29375 -1.12375,0 -2.315,0.4975 -3.11125,1.29375 -0.79125,0.79125 -1.28375,1.9875 -1.28375,3.11 0,1.1225 0.4925,2.31875 1.28375,3.115 0.79625,0.79125 1.9875,1.28875 3.11125,1.28875 1.1225,0 2.31375,-0.4975 3.11,-1.28875 0.79125,-0.79625 1.28375,-1.9925 1.28375,-3.115 0,-1.1225 -0.4925,-2.31875 -1.28375,-3.11 z" /><path
       inkscape:connector-curvature="0"
       id="path12664"
       style="fill:#fa3200;fill-opacity:1;fill-rule:nonzero;stroke:none"
       d="m 253.08232,162.96875 c -0.79625,-0.79125 -1.9875,-1.28875 -3.11125,-1.28875 -1.1225,0 -2.31375,0.4975 -3.11,1.28875 -0.79125,0.79625 -1.28375,1.9925 -1.28375,3.115 0,1.12375 0.4925,2.32 1.28375,3.11 0.79625,0.79625 1.9875,1.29 3.11,1.29 1.12375,0 2.315,-0.49375 3.11125,-1.29 0.79,-0.79 1.28375,-1.98625 1.28375,-3.11 0,-1.1225 -0.49375,-2.31875 -1.28375,-3.115 z" /><path
       inkscape:connector-curvature="0"
       id="path12668"
       style="fill:#fa3200;fill-opacity:1;fill-rule:nonzero;stroke:none"
       d="m 240.59107,177.97875 c -0.795,-0.79625 -1.98625,-1.28875 -3.11,-1.28875 -1.1175,0 -2.31375,0.4925 -3.105,1.28875 -0.79625,0.79125 -1.28875,1.9875 -1.28875,3.11 0,1.12375 0.4925,2.32 1.28875,3.115 0.79125,0.79125 1.9875,1.29 3.105,1.29 1.12375,0 2.315,-0.49875 3.11,-1.29 0.79125,-0.795 1.285,-1.99125 1.285,-3.115 0,-1.1225 -0.49375,-2.31875 -1.285,-3.11 z" /><path
       inkscape:connector-curvature="0"
       id="path12672"
       style="fill:#fa3200;fill-opacity:1;fill-rule:nonzero;stroke:none"
       d="m 228.10107,151.71375 c -0.79125,-0.79625 -1.9875,-1.28875 -3.11,-1.28875 -1.11875,0 -2.315,0.4925 -3.105,1.28875 -0.79625,0.79625 -1.29,1.9875 -1.29,3.11 0,1.12375 0.49375,2.32 1.29,3.11625 0.79,0.795 1.98625,1.28875 3.105,1.28875 1.1225,0 2.31875,-0.49375 3.11,-1.28875 0.79625,-0.79625 1.29,-1.9925 1.29,-3.11625 0,-1.1225 -0.49375,-2.31375 -1.29,-3.11 z" /><path
       inkscape:connector-curvature="0"
       id="path12676"
       style="fill:#fa3200;fill-opacity:1;fill-rule:nonzero;stroke:none"
       d="m 214.36107,161.71875 c -0.79125,-0.79625 -1.9875,-1.28875 -3.105,-1.28875 -1.12375,0 -2.32,0.4925 -3.11125,1.28875 -0.795,0.79625 -1.28875,1.9925 -1.28875,3.115 0,1.12375 0.49375,2.315 1.28875,3.11 0.79125,0.79625 1.9875,1.29 3.11125,1.29 1.1175,0 2.31375,-0.49375 3.105,-1.29 0.79625,-0.795 1.28875,-1.98625 1.28875,-3.11 0,-1.1225 -0.4925,-2.31875 -1.28875,-3.115 z" /><path
       inkscape:connector-curvature="0"
       id="path12680"
       style="fill:#fa3200;fill-opacity:1;fill-rule:nonzero;stroke:none"
       d="m 201.87107,161.71875 c -0.79125,-0.79625 -1.9875,-1.28875 -3.105,-1.28875 -1.12375,0 -2.32,0.4925 -3.11125,1.28875 -0.795,0.79625 -1.28875,1.9925 -1.28875,3.115 0,1.12375 0.4975,2.315 1.28875,3.11 0.79125,0.79625 1.9875,1.29 3.11125,1.29 1.1175,0 2.31375,-0.49375 3.105,-1.29 0.79625,-0.795 1.28875,-1.98625 1.28875,-3.11 0,-1.1225 -0.4925,-2.31875 -1.28875,-3.115 z" /><path
       inkscape:connector-curvature="0"
       id="path12684"
       style="fill:#fa3200;fill-opacity:1;fill-rule:nonzero;stroke:none"
       d="m 189.38107,115.44375 c -0.79125,-0.79 -1.9825,-1.28875 -3.10625,-1.28875 -1.1225,0 -2.31375,0.49875 -3.11,1.28875 -0.79125,0.79625 -1.28875,1.9925 -1.28875,3.11625 0,1.1225 0.4975,2.31375 1.28875,3.11 0.79625,0.79625 1.9875,1.28875 3.11,1.28875 1.12375,0 2.315,-0.4975 3.10625,-1.28875 0.795,-0.79625 1.28875,-1.9925 1.28875,-3.11 0,-1.12375 -0.49375,-2.32 -1.28875,-3.11625 z" /><path
       inkscape:connector-curvature="0"
       id="path12688"
       style="fill:#fa3200;fill-opacity:1;fill-rule:nonzero;stroke:none"
       d="m 176.89482,96.685 c -0.795,-0.79625 -1.98625,-1.29 -3.11,-1.29 -1.1225,0 -2.31375,0.49375 -3.11,1.29 -0.79125,0.795 -1.28375,1.99125 -1.28375,3.11 0,1.1275 0.4925,2.31875 1.28375,3.115 0.79625,0.79625 1.9875,1.28875 3.11,1.28875 1.12375,0 2.315,-0.4925 3.11,-1.28875 0.79125,-0.79625 1.285,-1.9875 1.285,-3.115 0,-1.11875 -0.49375,-2.315 -1.285,-3.11 z" /><path
       inkscape:connector-curvature="0"
       id="path12692"
       style="fill:#fa3200;fill-opacity:1;fill-rule:nonzero;stroke:none"
       d="m 163.15482,75.425 c -0.79125,-0.79625 -1.9875,-1.28875 -3.11,-1.28875 -1.11875,0 -2.315,0.4925 -3.105,1.28875 -0.79625,0.79125 -1.29,1.9875 -1.29,3.11 0,1.12375 0.49375,2.32 1.29,3.115 0.79,0.79125 1.98625,1.29 3.105,1.29 1.1225,0 2.31875,-0.49875 3.11,-1.29 0.79625,-0.795 1.29,-1.99125 1.29,-3.115 0,-1.1225 -0.49375,-2.31875 -1.29,-3.11 z" /><path
       inkscape:connector-curvature="0"
       id="path12696"
       style="fill:#fa3200;fill-opacity:1;fill-rule:nonzero;stroke:none"
       d="m 150.66482,56.665 c -0.79125,-0.79625 -1.9875,-1.29375 -3.11,-1.29375 -1.11875,0 -2.315,0.4975 -3.10625,1.29375 -0.795,0.79125 -1.28875,1.9875 -1.28875,3.11 0,1.12375 0.49375,2.32 1.28875,3.115 0.79125,0.79125 1.9875,1.29 3.10625,1.29 1.1225,0 2.31875,-0.49875 3.11,-1.29 0.79625,-0.795 1.28875,-1.99125 1.28875,-3.115 0,-1.1225 -0.4925,-2.31875 -1.28875,-3.11 z" /><path
       inkscape:connector-curvature="0"
       id="path12700"
       style="fill:#fa3200;fill-opacity:1;fill-rule:nonzero;stroke:none"
       d="m 138.17482,44.155 c -0.79125,-0.79125 -1.9875,-1.28875 -3.105,-1.28875 -1.12375,0 -2.32,0.4975 -3.11125,1.28875 -0.79625,0.79625 -1.28875,1.9925 -1.28875,3.115 0,1.12375 0.4925,2.32 1.28875,3.11125 0.79125,0.795 1.9875,1.28875 3.11125,1.28875 1.1175,0 2.31375,-0.49375 3.105,-1.28875 0.79625,-0.79125 1.28875,-1.9875 1.28875,-3.11125 0,-1.1225 -0.4925,-2.31875 -1.28875,-3.115 z" /><path
       inkscape:connector-curvature="0"
       id="path12704"
       style="fill:#fa3200;fill-opacity:1;fill-rule:nonzero;stroke:none"
       d="m 125.68495,74.17 c -0.7915,-0.79125 -1.98788,-1.28375 -3.1065,-1.28375 -1.1225,0 -2.31888,0.4925 -3.10988,1.28375 -0.7915,0.79625 -1.2885,1.9925 -1.2885,3.115 0,1.12375 0.497,2.32 1.2885,3.115 0.791,0.79125 1.98738,1.29 3.10988,1.29 1.11862,0 2.315,-0.49875 3.1065,-1.29 0.79487,-0.795 1.28862,-1.99125 1.28862,-3.115 0,-1.1225 -0.49375,-2.31875 -1.28862,-3.115 z" /><path
       inkscape:connector-curvature="0"
       id="path12708"
       style="fill:#fa3200;fill-opacity:1;fill-rule:nonzero;stroke:none"
       d="m 111.94857,90.43 c -0.79487,-0.79125 -1.98625,-1.29 -3.10987,-1.29 -1.1225,0 -2.31388,0.49875 -3.11038,1.29 -0.791,0.795 -1.28362,1.9925 -1.28362,3.115 0,1.1225 0.49262,2.31875 1.28362,3.11 0.7965,0.79625 1.98788,1.28875 3.11038,1.28875 1.12362,0 2.315,-0.4925 3.10987,-1.28875 0.791,-0.79125 1.28513,-1.9875 1.28513,-3.11 0,-1.1225 -0.49413,-2.32 -1.28513,-3.115 z" /><path
       inkscape:connector-curvature="0"
       id="path12712"
       style="fill:#fa3200;fill-opacity:1;fill-rule:nonzero;stroke:none"
       d="M 99.458322,156.71375 C 98.662447,155.9225 97.471072,155.43 96.348447,155.43 c -1.1235,0 -2.314875,0.4925 -3.109875,1.28375 -0.7915,0.79625 -1.285125,1.9925 -1.285125,3.115 0,1.12375 0.493625,2.32 1.285125,3.115 0.795,0.79125 1.986375,1.29 3.109875,1.29 1.122625,0 2.314,-0.49875 3.109875,-1.29 0.791498,-0.795 1.289128,-1.99125 1.289128,-3.115 0,-1.1225 -0.49763,-2.31875 -1.289128,-3.115 z" /><path
       inkscape:connector-curvature="0"
       id="path12716"
       style="fill:#fa3200;fill-opacity:1;fill-rule:nonzero;stroke:none"
       d="m 86.968572,159.21875 c -0.7915,-0.79625 -1.98725,-1.28875 -3.109875,-1.28875 -1.119125,0 -2.314875,0.4925 -3.11125,1.28875 -0.790125,0.79125 -1.28375,1.9875 -1.28375,3.11 0,1.12375 0.493625,2.32 1.28375,3.115 0.796375,0.79125 1.992125,1.29 3.11125,1.29 1.122625,0 2.318375,-0.49875 3.109875,-1.29 0.796375,-0.795 1.288625,-1.99125 1.288625,-3.115 0,-1.1225 -0.49225,-2.31875 -1.288625,-3.11 z" /><path
       inkscape:connector-curvature="0"
       id="path12720"
       style="fill:#fa3200;fill-opacity:1;fill-rule:nonzero;stroke:none"
       d="m 74.478322,201.73875 c -0.791,-0.79125 -1.98725,-1.29 -3.10975,-1.29 -1.11875,0 -2.315,0.49875 -3.106,1.29 -0.796375,0.795 -1.289125,1.99125 -1.289125,3.115 0,1.1225 0.49275,2.31875 1.289125,3.11 0.791,0.79625 1.98725,1.28875 3.106,1.28875 1.1225,0 2.31875,-0.4925 3.10975,-1.28875 0.7965,-0.79125 1.289125,-1.9875 1.289125,-3.11 0,-1.12375 -0.492625,-2.32 -1.289125,-3.115 z" /><path
       inkscape:connector-curvature="0"
       id="path12724"
       style="fill:#fa3200;fill-opacity:1;fill-rule:nonzero;stroke:none"
       d="m 320.55732,54.16 c -0.79125,-0.79125 -1.9875,-1.28875 -3.11,-1.28875 -1.11875,0 -2.315,0.4975 -3.10625,1.28875 -0.795,0.79625 -1.28875,1.9925 -1.28875,3.115 0,1.12375 0.49375,2.32 1.28875,3.115 0.79125,0.79125 1.9875,1.29 3.10625,1.29 1.1225,0 2.31875,-0.49875 3.11,-1.29 0.79625,-0.795 1.28875,-1.99125 1.28875,-3.115 0,-1.1225 -0.4925,-2.31875 -1.28875,-3.115 z" /><path
       d="m 403.80152,260.1997 0,-33.57907"
       style="fill:none;stroke:#fa3200;stroke-width:2.49962425;stroke-linecap:square;stroke-linejoin:miter;stroke-miterlimit:10;stroke-dasharray:none;stroke-opacity:1"
       id="path12298"
       inkscape:connector-curvature="0" /><path
       d="m 371.76582,227.58754 0,-33.95558"
       style="fill:none;stroke:#fa3200;stroke-width:2.49962425;stroke-linecap:square;stroke-linejoin:miter;stroke-miterlimit:10;stroke-dasharray:none;stroke-opacity:1"
       id="path12302"
       inkscape:connector-curvature="0" /><path
       d="m 339.72887,261.35298 0,-32.89111"
       style="fill:none;stroke:#fa3200;stroke-width:2.49962425;stroke-linecap:square;stroke-linejoin:miter;stroke-miterlimit:10;stroke-dasharray:none;stroke-opacity:1"
       id="path12306"
       inkscape:connector-curvature="0" /><path
       d="m 326.91635,243.77479 0,-33.84425"
       style="fill:none;stroke:#fa3200;stroke-width:2.49962425;stroke-linecap:square;stroke-linejoin:miter;stroke-miterlimit:10;stroke-dasharray:none;stroke-opacity:1"
       id="path12310"
       inkscape:connector-curvature="0" /><path
       d="m 314.10381,248.50175 0,-33.26636"
       style="fill:none;stroke:#fa3200;stroke-width:2.49962425;stroke-linecap:square;stroke-linejoin:miter;stroke-miterlimit:10;stroke-dasharray:none;stroke-opacity:1"
       id="path12314"
       inkscape:connector-curvature="0" /><path
       d="m 301.29127,245.94751 0,-35.64047"
       style="fill:none;stroke:#fa3200;stroke-width:2.49962425;stroke-linecap:square;stroke-linejoin:miter;stroke-miterlimit:10;stroke-dasharray:none;stroke-opacity:1"
       id="path12318"
       inkscape:connector-curvature="0" /><path
       d="m 288.48,231.0599 0,-32.61216"
       style="fill:none;stroke:#fa3200;stroke-width:2.49962425;stroke-linecap:square;stroke-linejoin:miter;stroke-miterlimit:10;stroke-dasharray:none;stroke-opacity:1"
       id="path12322"
       inkscape:connector-curvature="0" /><path
       d="m 275.66746,221.61097 0,-32.67095"
       style="fill:none;stroke:#fa3200;stroke-width:2.49962425;stroke-linecap:square;stroke-linejoin:miter;stroke-miterlimit:10;stroke-dasharray:none;stroke-opacity:1"
       id="path12326"
       inkscape:connector-curvature="0" /><path
       d="m 262.84869,203.10965 0,-32.44079"
       style="fill:none;stroke:#fa3200;stroke-width:2.49962425;stroke-linecap:square;stroke-linejoin:miter;stroke-miterlimit:10;stroke-dasharray:none;stroke-opacity:1"
       id="path12330"
       inkscape:connector-curvature="0" /><path
       d="m 250.03616,184.35065 0,-35.67799"
       style="fill:none;stroke:#fa3200;stroke-width:2.49962425;stroke-linecap:square;stroke-linejoin:miter;stroke-miterlimit:10;stroke-dasharray:none;stroke-opacity:1"
       id="path12334"
       inkscape:connector-curvature="0" /><path
       d="m 237.22362,197.96365 0,-33.45272"
       style="fill:none;stroke:#fa3200;stroke-width:2.49962425;stroke-linecap:square;stroke-linejoin:miter;stroke-miterlimit:10;stroke-dasharray:none;stroke-opacity:1"
       id="path12338"
       inkscape:connector-curvature="0" /><path
       d="m 224.4111,171.28802 0,-33.67537"
       style="fill:none;stroke:#fa3200;stroke-width:2.49962425;stroke-linecap:square;stroke-linejoin:miter;stroke-miterlimit:10;stroke-dasharray:none;stroke-opacity:1"
       id="path12342"
       inkscape:connector-curvature="0" /><path
       d="m 211.59981,182.67076 0,-35.693"
       style="fill:none;stroke:#fa3200;stroke-width:2.49962425;stroke-linecap:square;stroke-linejoin:miter;stroke-miterlimit:10;stroke-dasharray:none;stroke-opacity:1"
       id="path12346"
       inkscape:connector-curvature="0" /><path
       d="m 198.78727,183.19862 0,-35.76305"
       style="fill:none;stroke:#fa3200;stroke-width:2.49962425;stroke-linecap:square;stroke-linejoin:miter;stroke-miterlimit:10;stroke-dasharray:none;stroke-opacity:1"
       id="path12350"
       inkscape:connector-curvature="0" /><path
       d="m 185.96975,134.34667 0,-31.78284"
       style="fill:none;stroke:#fa3200;stroke-width:2.49962425;stroke-linecap:square;stroke-linejoin:miter;stroke-miterlimit:10;stroke-dasharray:none;stroke-opacity:1"
       id="path12354"
       inkscape:connector-curvature="0" /><path
       d="m 173.15722,117.19752 0,-34.638533"
       style="fill:none;stroke:#fa3200;stroke-width:2.49962425;stroke-linecap:square;stroke-linejoin:miter;stroke-miterlimit:10;stroke-dasharray:none;stroke-opacity:1"
       id="path12358"
       inkscape:connector-curvature="0" /><path
       d="m 160.34469,94.394525 0,-32.8173"
       style="fill:none;stroke:#fa3200;stroke-width:2.49962425;stroke-linecap:square;stroke-linejoin:miter;stroke-miterlimit:10;stroke-dasharray:none;stroke-opacity:1"
       id="path12362"
       inkscape:connector-curvature="0" /><path
       d="m 147.53216,75.634275 0,-32.724738"
       style="fill:none;stroke:#fa3200;stroke-width:2.49962425;stroke-linecap:square;stroke-linejoin:miter;stroke-miterlimit:10;stroke-dasharray:none;stroke-opacity:1"
       id="path12366"
       inkscape:connector-curvature="0" /><path
       d="m 134.71462,64.663075 0,-33.856763"
       style="fill:none;stroke:#fa3200;stroke-width:2.49962425;stroke-linecap:square;stroke-linejoin:miter;stroke-miterlimit:10;stroke-dasharray:none;stroke-opacity:1"
       id="path12370"
       inkscape:connector-curvature="0" /><path
       d="m 121.90222,93.857912 0,-33.745437"
       style="fill:none;stroke:#fa3200;stroke-width:2.49962425;stroke-linecap:square;stroke-linejoin:miter;stroke-miterlimit:10;stroke-dasharray:none;stroke-opacity:1"
       id="path12374"
       inkscape:connector-curvature="0" /><path
       d="m 109.08969,110.32285 0,-33.941812"
       style="fill:none;stroke:#fa3200;stroke-width:2.49962425;stroke-linecap:square;stroke-linejoin:miter;stroke-miterlimit:10;stroke-dasharray:none;stroke-opacity:1"
       id="path12378"
       inkscape:connector-curvature="0" /><path
       d="m 96.277284,177.31837 0,-34.18322"
       style="fill:none;stroke:#fa3200;stroke-width:2.49962425;stroke-linecap:square;stroke-linejoin:miter;stroke-miterlimit:10;stroke-dasharray:none;stroke-opacity:1"
       id="path12382"
       inkscape:connector-curvature="0" /><path
       d="m 83.464253,178.82315 0,-33.4815"
       style="fill:none;stroke:#fa3200;stroke-width:2.49962425;stroke-linecap:square;stroke-linejoin:miter;stroke-miterlimit:10;stroke-dasharray:none;stroke-opacity:1"
       id="path12386"
       inkscape:connector-curvature="0" /><path
       d="m 70.646851,221.76232 0,-33.43772"
       style="fill:none;stroke:#fa3200;stroke-width:2.49962425;stroke-linecap:square;stroke-linejoin:miter;stroke-miterlimit:10;stroke-dasharray:none;stroke-opacity:1"
       id="path12390"
       inkscape:connector-curvature="0" /><path
       d="m 403.80152,243.41204 -32.0357,-32.80229 -32.03695,34.29205 -12.81252,-18.04726 -12.81254,5.01591 -12.81254,-3.74505 -12.81127,-13.37409 -12.81254,-9.47269 -12.81877,-18.38875 -12.81253,-20.38135 -12.81254,14.73127 -12.81252,-26.7907 -12.81129,10.37455 -12.81254,0.49408 -12.81752,-46.8606 L 173.15722,99.877 160.34469,77.988375 147.53216,59.271912 l -12.81754,-11.5366 -12.8124,29.247375 -12.81253,16.367375 -12.812406,66.875448 -12.813031,1.86001 -12.817402,42.95794"
       style="fill:none;stroke:#fa3200;stroke-width:2.49962425;stroke-linecap:square;stroke-linejoin:miter;stroke-miterlimit:10;stroke-dasharray:none;stroke-opacity:1"
       id="path12394"
       inkscape:connector-curvature="0"
       sodipodi:nodetypes="cccccccccccccccccccccccc" /><path
       transform="matrix(1.25,0,0,-1.25,0,391.25)"
       d="m 233.8129,266.68022 37.24965,0"
       style="fill:none;stroke:#fa3200;stroke-width:1.99969947;stroke-linecap:square;stroke-linejoin:miter;stroke-miterlimit:10;stroke-dasharray:none;stroke-opacity:1"
       id="path12516"
       inkscape:connector-curvature="0" /></g><g
     inkscape:groupmode="layer"
     id="layer3"
     inkscape:label="Top"><path
       transform="matrix(1.25,0,0,-1.25,0,391.25)"
       inkscape:connector-curvature="0"
       id="path12728"
       style="fill:#fa9600;fill-opacity:1;fill-rule:nonzero;stroke:none"
       d="m 324.246,125.594 c -0.637,0.636 -1.59,1.031 -2.488,1.031 -0.899,0 -1.852,-0.395 -2.488,-1.031 -0.633,-0.637 -1.028,-1.594 -1.028,-2.492 0,-0.899 0.395,-1.852 1.028,-2.489 0.636,-0.636 1.589,-1.031 2.488,-1.031 0.898,0 1.851,0.395 2.488,1.031 0.633,0.637 1.027,1.59 1.027,2.489 0,0.898 -0.394,1.855 -1.027,2.492 z" /><path
       transform="matrix(1.25,0,0,-1.25,0,391.25)"
       inkscape:connector-curvature="0"
       id="path12732"
       style="fill:#fa9600;fill-opacity:1;fill-rule:nonzero;stroke:none"
       d="m 299.266,141.602 c -0.633,0.636 -1.59,1.031 -2.489,1.031 -0.898,0 -1.851,-0.395 -2.484,-1.031 -0.637,-0.637 -1.031,-1.59 -1.031,-2.489 0,-0.898 0.394,-1.855 1.031,-2.492 0.633,-0.633 1.586,-1.031 2.484,-1.031 0.899,0 1.856,0.398 2.489,1.031 0.632,0.637 1.031,1.594 1.031,2.492 0,0.899 -0.399,1.852 -1.031,2.489 z" /><path
       transform="matrix(1.25,0,0,-1.25,0,391.25)"
       inkscape:connector-curvature="0"
       id="path12736"
       style="fill:#fa9600;fill-opacity:1;fill-rule:nonzero;stroke:none"
       d="m 273.285,136.602 c -0.633,0.632 -1.59,1.031 -2.484,1.031 -0.899,0 -1.852,-0.399 -2.489,-1.031 -0.632,-0.637 -1.031,-1.594 -1.031,-2.493 0,-0.898 0.399,-1.855 1.031,-2.488 0.637,-0.637 1.59,-1.035 2.489,-1.035 0.894,0 1.851,0.398 2.484,1.035 0.637,0.633 1.031,1.59 1.031,2.488 0,0.899 -0.394,1.856 -1.031,2.493 z" /><path
       transform="matrix(1.25,0,0,-1.25,0,391.25)"
       inkscape:connector-curvature="0"
       id="path12740"
       style="fill:#fa9600;fill-opacity:1;fill-rule:nonzero;stroke:none"
       d="m 263.297,155.609 c -0.637,0.637 -1.59,1.032 -2.488,1.032 -0.899,0 -1.852,-0.395 -2.489,-1.032 -0.632,-0.636 -1.027,-1.589 -1.027,-2.488 0,-0.898 0.395,-1.855 1.027,-2.492 0.637,-0.633 1.59,-1.031 2.489,-1.031 0.898,0 1.851,0.398 2.488,1.031 0.633,0.637 1.027,1.594 1.027,2.492 0,0.899 -0.394,1.852 -1.027,2.488 z" /><path
       transform="matrix(1.25,0,0,-1.25,0,391.25)"
       inkscape:connector-curvature="0"
       id="path12744"
       style="fill:#fa9600;fill-opacity:1;fill-rule:nonzero;stroke:none"
       d="m 252.305,165.613 c -0.633,0.637 -1.59,1.035 -2.489,1.035 -0.898,0 -1.851,-0.398 -2.484,-1.035 -0.637,-0.633 -1.031,-1.59 -1.031,-2.488 0,-0.898 0.394,-1.855 1.031,-2.492 0.633,-0.633 1.59,-1.031 2.484,-1.031 0.899,0 1.856,0.398 2.489,1.031 0.633,0.637 1.031,1.594 1.031,2.492 0,0.898 -0.398,1.855 -1.031,2.488 z" /><path
       transform="matrix(1.25,0,0,-1.25,0,391.25)"
       inkscape:connector-curvature="0"
       id="path12748"
       style="fill:#fa9600;fill-opacity:1;fill-rule:nonzero;stroke:none"
       d="m 242.312,168.617 c -0.632,0.637 -1.589,1.031 -2.488,1.031 -0.894,0 -1.851,-0.394 -2.484,-1.031 -0.637,-0.637 -1.031,-1.594 -1.031,-2.488 0,-0.899 0.394,-1.856 1.031,-2.492 0.633,-0.637 1.59,-1.032 2.484,-1.032 0.899,0 1.856,0.395 2.488,1.032 0.637,0.636 1.032,1.593 1.032,2.492 0,0.894 -0.399,1.851 -1.032,2.488 z" /><path
       transform="matrix(1.25,0,0,-1.25,0,391.25)"
       inkscape:connector-curvature="0"
       id="path12752"
       style="fill:#fa9600;fill-opacity:1;fill-rule:nonzero;stroke:none"
       d="m 232.32,188.629 c -0.632,0.633 -1.59,1.031 -2.484,1.031 -0.898,0 -1.856,-0.398 -2.488,-1.031 -0.637,-0.637 -1.032,-1.594 -1.032,-2.492 0,-0.899 0.395,-1.856 1.032,-2.489 0.632,-0.636 1.59,-1.035 2.488,-1.035 0.894,0.004 1.852,0.399 2.484,1.035 0.637,0.633 1.032,1.59 1.032,2.489 0,0.898 -0.395,1.855 -1.032,2.492 z" /><path
       transform="matrix(1.25,0,0,-1.25,0,391.25)"
       inkscape:connector-curvature="0"
       id="path12756"
       style="fill:#fa9600;fill-opacity:1;fill-rule:nonzero;stroke:none"
       d="m 222.328,199.633 c -0.633,0.637 -1.59,1.031 -2.484,1.031 -0.899,0 -1.856,-0.394 -2.489,-1.031 -0.636,-0.637 -1.031,-1.59 -1.031,-2.488 0,-0.899 0.395,-1.856 1.031,-2.493 0.633,-0.636 1.59,-1.031 2.489,-1.031 0.894,0 1.851,0.395 2.484,1.031 0.637,0.637 1.031,1.594 1.031,2.493 0,0.898 -0.394,1.851 -1.031,2.488 z" /><path
       transform="matrix(1.25,0,0,-1.25,0,391.25)"
       inkscape:connector-curvature="0"
       id="path12760"
       style="fill:#fa9600;fill-opacity:1;fill-rule:nonzero;stroke:none"
       d="m 211.34,206.637 c -0.637,0.636 -1.59,1.031 -2.488,1.031 -0.899,0 -1.852,-0.395 -2.489,-1.031 -0.633,-0.637 -1.027,-1.594 -1.027,-2.492 0,-0.899 0.394,-1.852 1.027,-2.489 0.637,-0.636 1.59,-1.031 2.489,-1.031 0.898,0 1.851,0.395 2.488,1.031 0.633,0.637 1.027,1.59 1.027,2.489 0,0.898 -0.394,1.855 -1.027,2.492 z" /><path
       transform="matrix(1.25,0,0,-1.25,0,391.25)"
       inkscape:connector-curvature="0"
       id="path12764"
       style="fill:#fa9600;fill-opacity:1;fill-rule:nonzero;stroke:none"
       d="m 201.348,217.645 c -0.637,0.632 -1.59,1.031 -2.489,1.031 -0.898,0 -1.851,-0.399 -2.488,-1.031 -0.633,-0.637 -1.027,-1.594 -1.027,-2.493 0,-0.898 0.394,-1.855 1.027,-2.488 0.637,-0.637 1.59,-1.035 2.488,-1.035 0.899,0 1.852,0.398 2.489,1.035 0.632,0.633 1.027,1.59 1.027,2.488 0,0.899 -0.395,1.856 -1.027,2.493 z" /><path
       transform="matrix(1.25,0,0,-1.25,0,391.25)"
       inkscape:connector-curvature="0"
       id="path12768"
       style="fill:#fa9600;fill-opacity:1;fill-rule:nonzero;stroke:none"
       d="m 191.355,217.645 c -0.636,0.632 -1.589,1.031 -2.488,1.031 -0.894,0 -1.851,-0.399 -2.484,-1.031 -0.637,-0.637 -1.031,-1.594 -1.031,-2.493 0,-0.898 0.394,-1.855 1.031,-2.488 0.633,-0.637 1.59,-1.035 2.484,-1.035 0.899,0 1.852,0.398 2.488,1.035 0.633,0.633 1.028,1.59 1.028,2.488 0,0.899 -0.395,1.856 -1.028,2.493 z" /><path
       transform="matrix(1.25,0,0,-1.25,0,391.25)"
       inkscape:connector-curvature="0"
       id="path12772"
       style="fill:#fa9600;fill-opacity:1;fill-rule:nonzero;stroke:none"
       d="m 181.363,234.652 c -0.633,0.633 -1.59,1.032 -2.488,1.032 -0.895,0 -1.852,-0.399 -2.484,-1.032 -0.637,-0.636 -1.032,-1.593 -1.032,-2.492 0,-0.898 0.395,-1.851 1.032,-2.488 0.632,-0.637 1.589,-1.031 2.484,-1.031 0.898,0 1.855,0.394 2.488,1.031 0.637,0.637 1.032,1.59 1.032,2.488 0,0.899 -0.395,1.856 -1.032,2.492 z" /><path
       transform="matrix(1.25,0,0,-1.25,0,391.25)"
       inkscape:connector-curvature="0"
       id="path12776"
       style="fill:#fa9600;fill-opacity:1;fill-rule:nonzero;stroke:none"
       d="m 170.371,214.641 c -0.633,0.636 -1.59,1.031 -2.484,1.031 -0.899,0 -1.856,-0.395 -2.489,-1.031 -0.636,-0.637 -1.031,-1.59 -1.031,-2.489 0,-0.898 0.395,-1.855 1.031,-2.492 0.633,-0.633 1.59,-1.031 2.489,-1.031 0.894,0 1.851,0.398 2.484,1.031 0.637,0.637 1.031,1.594 1.031,2.492 0,0.899 -0.394,1.852 -1.031,2.489 z" /><path
       transform="matrix(1.25,0,0,-1.25,0,391.25)"
       inkscape:connector-curvature="0"
       id="path12780"
       style="fill:#fa9600;fill-opacity:1;fill-rule:nonzero;stroke:none"
       d="m 160.379,223.645 c -0.633,0.636 -1.59,1.031 -2.484,1.031 -0.899,0 -1.856,-0.395 -2.489,-1.031 -0.636,-0.633 -1.031,-1.59 -1.031,-2.489 0,-0.898 0.395,-1.855 1.031,-2.492 0.633,-0.633 1.59,-1.031 2.489,-1.031 0.894,0 1.851,0.398 2.484,1.031 0.637,0.637 1.031,1.594 1.031,2.492 0,0.899 -0.394,1.856 -1.031,2.489 z" /><path
       transform="matrix(1.25,0,0,-1.25,0,391.25)"
       inkscape:connector-curvature="0"
       id="path12784"
       style="fill:#fa9600;fill-opacity:1;fill-rule:nonzero;stroke:none"
       d="m 150.387,226.648 c -0.633,0.633 -1.586,1.032 -2.485,1.032 -0.898,0 -1.851,-0.399 -2.488,-1.032 -0.633,-0.636 -1.031,-1.593 -1.031,-2.492 0,-0.898 0.398,-1.855 1.031,-2.488 0.637,-0.637 1.59,-1.031 2.488,-1.031 0.899,0 1.852,0.394 2.485,1.031 0.636,0.633 1.031,1.59 1.031,2.488 0,0.899 -0.395,1.856 -1.031,2.492 z" /><path
       transform="matrix(1.25,0,0,-1.25,0,391.25)"
       inkscape:connector-curvature="0"
       id="path12788"
       style="fill:#fa9600;fill-opacity:1;fill-rule:nonzero;stroke:none"
       d="m 140.398,228.648 c -0.636,0.633 -1.589,1.032 -2.488,1.032 -0.898,0 -1.851,-0.399 -2.488,-1.032 -0.633,-0.636 -1.027,-1.593 -1.027,-2.492 0,-0.894 0.394,-1.851 1.027,-2.488 0.637,-0.637 1.59,-1.031 2.488,-1.031 0.899,0 1.852,0.394 2.488,1.031 0.633,0.637 1.028,1.594 1.028,2.488 0,0.899 -0.395,1.856 -1.028,2.492 z" /><path
       transform="matrix(1.25,0,0,-1.25,0,391.25)"
       inkscape:connector-curvature="0"
       id="path12792"
       style="fill:#fa9600;fill-opacity:1;fill-rule:nonzero;stroke:none"
       d="m 129.406,241.656 c -0.633,0.633 -1.59,1.032 -2.488,1.032 -0.895,0 -1.852,-0.399 -2.484,-1.032 -0.637,-0.636 -1.032,-1.594 -1.032,-2.492 0,-0.898 0.395,-1.852 1.032,-2.488 0.632,-0.637 1.589,-1.031 2.484,-1.031 0.898,0 1.855,0.394 2.488,1.031 0.637,0.636 1.032,1.59 1.032,2.488 0,0.898 -0.395,1.856 -1.032,2.492 z" /><path
       transform="matrix(1.25,0,0,-1.25,0,391.25)"
       inkscape:connector-curvature="0"
       id="path12796"
       style="fill:#fa9600;fill-opacity:1;fill-rule:nonzero;stroke:none"
       d="m 119.414,257.664 c -0.633,0.637 -1.59,1.031 -2.488,1.031 -0.895,0 -1.852,-0.394 -2.485,-1.031 -0.636,-0.637 -1.031,-1.594 -1.031,-2.492 0,-0.899 0.395,-1.852 1.031,-2.488 0.633,-0.637 1.59,-1.032 2.485,-1.032 0.898,0 1.855,0.395 2.488,1.032 0.637,0.636 1.031,1.589 1.031,2.488 0,0.898 -0.394,1.855 -1.031,2.492 z" /><path
       transform="matrix(1.25,0,0,-1.25,0,391.25)"
       inkscape:connector-curvature="0"
       id="path12800"
       style="fill:#fa9600;fill-opacity:1;fill-rule:nonzero;stroke:none"
       d="m 109.422,243.656 c -0.633,0.637 -1.59,1.032 -2.484,1.032 -0.899,0 -1.856,-0.395 -2.489,-1.032 -0.637,-0.633 -1.031,-1.59 -1.031,-2.488 0,-0.898 0.394,-1.856 1.031,-2.492 0.633,-0.633 1.59,-1.031 2.489,-1.031 0.894,0 1.851,0.398 2.484,1.031 0.637,0.636 1.031,1.594 1.031,2.492 0,0.898 -0.394,1.855 -1.031,2.488 z" /><path
       transform="matrix(1.25,0,0,-1.25,0,391.25)"
       inkscape:connector-curvature="0"
       id="path12804"
       style="fill:#fa9600;fill-opacity:1;fill-rule:nonzero;stroke:none"
       d="m 99.4301,239.652 c -0.6332,0.637 -1.586,1.036 -2.4852,1.036 -0.898,0 -1.8551,-0.399 -2.4879,-1.036 -0.6332,-0.632 -1.0308,-1.59 -1.0308,-2.488 0,-0.898 0.3976,-1.855 1.0308,-2.488 0.6328,-0.637 1.5899,-1.035 2.4879,-1.035 0.8992,0 1.852,0.398 2.4852,1.035 0.6359,0.633 1.0309,1.59 1.0309,2.488 0,0.898 -0.395,1.856 -1.0309,2.488 z" /><path
       transform="matrix(1.25,0,0,-1.25,0,391.25)"
       inkscape:connector-curvature="0"
       id="path12808"
       style="fill:#fa9600;fill-opacity:1;fill-rule:nonzero;stroke:none"
       d="m 88.441,225.648 c -0.6359,0.633 -1.589,1.032 -2.4879,1.032 -0.898,0 -1.8511,-0.399 -2.4883,-1.032 -0.6328,-0.636 -1.0269,-1.593 -1.0269,-2.492 0,-0.898 0.3941,-1.855 1.0269,-2.488 0.6372,-0.637 1.5903,-1.031 2.4883,-1.031 0.8989,0 1.852,0.394 2.4879,1.031 0.6328,0.633 1.0281,1.59 1.0281,2.488 0,0.899 -0.3953,1.856 -1.0281,2.492 z" /><path
       transform="matrix(1.25,0,0,-1.25,0,391.25)"
       inkscape:connector-curvature="0"
       id="path12812"
       style="fill:#fa9600;fill-opacity:1;fill-rule:nonzero;stroke:none"
       d="m 78.4488,186.625 c -0.6367,0.637 -1.5898,1.031 -2.4879,1.031 -0.8988,0 -1.8519,-0.394 -2.4879,-1.031 -0.6332,-0.633 -1.0281,-1.59 -1.0281,-2.488 0,-0.899 0.3949,-1.856 1.0281,-2.492 0.636,-0.633 1.5891,-1.032 2.4879,-1.032 0.8981,0 1.8512,0.399 2.4879,1.032 0.6332,0.636 1.0313,1.593 1.0313,2.492 0,0.898 -0.3981,1.855 -1.0313,2.488 z" /><path
       transform="matrix(1.25,0,0,-1.25,0,391.25)"
       inkscape:connector-curvature="0"
       id="path12816"
       style="fill:#fa9600;fill-opacity:1;fill-rule:nonzero;stroke:none"
       d="m 68.457,162.613 c -0.6332,0.637 -1.5898,1.032 -2.4879,1.032 -0.8953,0 -1.8519,-0.395 -2.489,-1.032 -0.6321,-0.633 -1.027,-1.59 -1.027,-2.488 0,-0.898 0.3949,-1.855 1.027,-2.492 0.6371,-0.637 1.5937,-1.031 2.489,-1.031 0.8981,0 1.8547,0.398 2.4879,1.031 0.6371,0.637 1.0309,1.594 1.0309,2.492 0,0.898 -0.3938,1.855 -1.0309,2.488 z" /><path
       transform="matrix(1.25,0,0,-1.25,0,391.25)"
       inkscape:connector-curvature="0"
       id="path12820"
       style="fill:#fa9600;fill-opacity:1;fill-rule:nonzero;stroke:none"
       d="m 58.4648,158.609 c -0.6328,0.637 -1.5898,1.036 -2.4878,1.036 -0.895,0 -1.852,-0.399 -2.4848,-1.036 -0.6371,-0.632 -1.0313,-1.589 -1.0313,-2.488 0,-0.898 0.3942,-1.855 1.0313,-2.488 0.6328,-0.637 1.5898,-1.035 2.4848,-1.035 0.898,0 1.855,0.398 2.4878,1.035 0.6372,0.633 1.0313,1.59 1.0313,2.488 0,0.899 -0.3941,1.856 -1.0313,2.488 z" /><path
       transform="matrix(1.25,0,0,-1.25,0,391.25)"
       inkscape:connector-curvature="0"
       id="path12824"
       style="fill:#fa9600;fill-opacity:1;fill-rule:nonzero;stroke:none"
       d="m 255.328,288.68 c -0.633,0.636 -1.59,1.031 -2.488,1.031 -0.895,0 -1.852,-0.395 -2.485,-1.031 -0.636,-0.637 -1.031,-1.59 -1.031,-2.489 0,-0.898 0.395,-1.855 1.031,-2.492 0.633,-0.633 1.59,-1.031 2.485,-1.031 0.898,0 1.855,0.398 2.488,1.031 0.637,0.637 1.031,1.594 1.031,2.492 0,0.899 -0.394,1.852 -1.031,2.489 z" /><path
       transform="matrix(1.25,0,0,-1.25,0,391.25)"
       d="m 321.99989,112.96476 0,20.91822"
       style="fill:none;stroke:#fa9600;stroke-width:1.99969947;stroke-linecap:square;stroke-linejoin:miter;stroke-miterlimit:10;stroke-dasharray:none;stroke-opacity:1"
       id="path12198"
       inkscape:connector-curvature="0" /><path
       transform="matrix(1.25,0,0,-1.25,0,391.25)"
       d="m 296.37133,128.9106 0,20.26177"
       style="fill:none;stroke:#fa9600;stroke-width:1.99969947;stroke-linecap:square;stroke-linejoin:miter;stroke-miterlimit:10;stroke-dasharray:none;stroke-opacity:1"
       id="path12202"
       inkscape:connector-curvature="0" /><path
       transform="matrix(1.25,0,0,-1.25,0,391.25)"
       d="m 270.74177,123.19872 0,21.83684"
       style="fill:none;stroke:#fa9600;stroke-width:1.99969947;stroke-linecap:square;stroke-linejoin:miter;stroke-miterlimit:10;stroke-dasharray:none;stroke-opacity:1"
       id="path12206"
       inkscape:connector-curvature="0" /><path
       transform="matrix(1.25,0,0,-1.25,0,391.25)"
       d="m 260.49175,141.93745 0,21.53564"
       style="fill:none;stroke:#fa9600;stroke-width:1.99969947;stroke-linecap:square;stroke-linejoin:miter;stroke-miterlimit:10;stroke-dasharray:none;stroke-opacity:1"
       id="path12210"
       inkscape:connector-curvature="0" /><path
       transform="matrix(1.25,0,0,-1.25,0,391.25)"
       d="m 250.24172,152.69076 0,20.96925"
       style="fill:none;stroke:#fa9600;stroke-width:1.99969947;stroke-linecap:square;stroke-linejoin:miter;stroke-miterlimit:10;stroke-dasharray:none;stroke-opacity:1"
       id="path12214"
       inkscape:connector-curvature="0" /><path
       transform="matrix(1.25,0,0,-1.25,0,391.25)"
       d="m 239.99169,155.8399 0,19.90252"
       style="fill:none;stroke:#fa9600;stroke-width:1.99969947;stroke-linecap:square;stroke-linejoin:miter;stroke-miterlimit:10;stroke-dasharray:none;stroke-opacity:1"
       id="path12218"
       inkscape:connector-curvature="0" /><path
       transform="matrix(1.25,0,0,-1.25,0,391.25)"
       d="m 229.74267,174.84381 0,21.64871"
       style="fill:none;stroke:#fa9600;stroke-width:1.99969947;stroke-linecap:square;stroke-linejoin:miter;stroke-miterlimit:10;stroke-dasharray:none;stroke-opacity:1"
       id="path12222"
       inkscape:connector-curvature="0" /><path
       transform="matrix(1.25,0,0,-1.25,0,391.25)"
       d="m 219.49264,186.96905 0,20.55097"
       style="fill:none;stroke:#fa9600;stroke-width:1.99969947;stroke-linecap:square;stroke-linejoin:miter;stroke-miterlimit:10;stroke-dasharray:none;stroke-opacity:1"
       id="path12226"
       inkscape:connector-curvature="0" /><path
       transform="matrix(1.25,0,0,-1.25,0,391.25)"
       d="m 209.23762,193.93779 0,21.3435"
       style="fill:none;stroke:#fa9600;stroke-width:1.99969947;stroke-linecap:square;stroke-linejoin:miter;stroke-miterlimit:10;stroke-dasharray:none;stroke-opacity:1"
       id="path12230"
       inkscape:connector-curvature="0" /><path
       transform="matrix(1.25,0,0,-1.25,0,391.25)"
       d="m 198.9876,204.37488 0,21.76179"
       style="fill:none;stroke:#fa9600;stroke-width:1.99969947;stroke-linecap:square;stroke-linejoin:miter;stroke-miterlimit:10;stroke-dasharray:none;stroke-opacity:1"
       id="path12234"
       inkscape:connector-curvature="0" /><path
       transform="matrix(1.25,0,0,-1.25,0,391.25)"
       d="m 188.73757,205.11338 0,20.73109"
       style="fill:none;stroke:#fa9600;stroke-width:1.99969947;stroke-linecap:square;stroke-linejoin:miter;stroke-miterlimit:10;stroke-dasharray:none;stroke-opacity:1"
       id="path12238"
       inkscape:connector-curvature="0" /><path
       transform="matrix(1.25,0,0,-1.25,0,391.25)"
       d="m 178.48755,221.49251 0,20.8862"
       style="fill:none;stroke:#fa9600;stroke-width:1.99969947;stroke-linecap:square;stroke-linejoin:miter;stroke-miterlimit:10;stroke-dasharray:none;stroke-opacity:1"
       id="path12242"
       inkscape:connector-curvature="0" /><path
       transform="matrix(1.25,0,0,-1.25,0,391.25)"
       d="m 168.23852,201.27678 0,21.12935"
       style="fill:none;stroke:#fa9600;stroke-width:1.99969947;stroke-linecap:square;stroke-linejoin:miter;stroke-miterlimit:10;stroke-dasharray:none;stroke-opacity:1"
       id="path12246"
       inkscape:connector-curvature="0" /><path
       transform="matrix(1.25,0,0,-1.25,0,391.25)"
       d="m 157.98849,210.82827 0,20.39085"
       style="fill:none;stroke:#fa9600;stroke-width:1.99969947;stroke-linecap:square;stroke-linejoin:miter;stroke-miterlimit:10;stroke-dasharray:none;stroke-opacity:1"
       id="path12250"
       inkscape:connector-curvature="0" /><path
       transform="matrix(1.25,0,0,-1.25,0,391.25)"
       d="m 147.73447,213.55912 0,21.14437"
       style="fill:none;stroke:#fa9600;stroke-width:1.99969947;stroke-linecap:square;stroke-linejoin:miter;stroke-miterlimit:10;stroke-dasharray:none;stroke-opacity:1"
       id="path12254"
       inkscape:connector-curvature="0" /><path
       transform="matrix(1.25,0,0,-1.25,0,391.25)"
       d="m 137.48445,216.19892 0,20.38685"
       style="fill:none;stroke:#fa9600;stroke-width:1.99969947;stroke-linecap:square;stroke-linejoin:miter;stroke-miterlimit:10;stroke-dasharray:none;stroke-opacity:1"
       id="path12258"
       inkscape:connector-curvature="0" /><path
       transform="matrix(1.25,0,0,-1.25,0,391.25)"
       d="m 127.23442,228.99561 0,20.07865"
       style="fill:none;stroke:#fa9600;stroke-width:1.99969947;stroke-linecap:square;stroke-linejoin:miter;stroke-miterlimit:10;stroke-dasharray:none;stroke-opacity:1"
       id="path12262"
       inkscape:connector-curvature="0" /><path
       transform="matrix(1.25,0,0,-1.25,0,391.25)"
       d="m 116.9844,244.68427 0,21.62069"
       style="fill:none;stroke:#fa9600;stroke-width:1.99969947;stroke-linecap:square;stroke-linejoin:miter;stroke-miterlimit:10;stroke-dasharray:none;stroke-opacity:1"
       id="path12266"
       inkscape:connector-curvature="0" /><path
       transform="matrix(1.25,0,0,-1.25,0,391.25)"
       d="m 106.73037,230.27348 0,21.60568"
       style="fill:none;stroke:#fa9600;stroke-width:1.99969947;stroke-linecap:square;stroke-linejoin:miter;stroke-miterlimit:10;stroke-dasharray:none;stroke-opacity:1"
       id="path12270"
       inkscape:connector-curvature="0" /><path
       transform="matrix(1.25,0,0,-1.25,0,391.25)"
       d="m 96.480449,226.05862 0,21.3395"
       style="fill:none;stroke:#fa9600;stroke-width:1.99969947;stroke-linecap:square;stroke-linejoin:miter;stroke-miterlimit:10;stroke-dasharray:none;stroke-opacity:1"
       id="path12274"
       inkscape:connector-curvature="0" /><path
       transform="matrix(1.25,0,0,-1.25,0,391.25)"
       d="m 86.230423,213.55512 0,20.08565"
       style="fill:none;stroke:#fa9600;stroke-width:1.99969947;stroke-linecap:square;stroke-linejoin:miter;stroke-miterlimit:10;stroke-dasharray:none;stroke-opacity:1"
       id="path12278"
       inkscape:connector-curvature="0" /><path
       transform="matrix(1.25,0,0,-1.25,0,391.25)"
       d="m 75.980498,173.8011 0,21.07032"
       style="fill:none;stroke:#fa9600;stroke-width:1.99969947;stroke-linecap:square;stroke-linejoin:miter;stroke-miterlimit:10;stroke-dasharray:none;stroke-opacity:1"
       id="path12282"
       inkscape:connector-curvature="0" /><path
       transform="matrix(1.25,0,0,-1.25,0,391.25)"
       d="m 65.730073,149.82381 0,21.19941"
       style="fill:none;stroke:#fa9600;stroke-width:1.99969947;stroke-linecap:square;stroke-linejoin:miter;stroke-miterlimit:10;stroke-dasharray:none;stroke-opacity:1"
       id="path12286"
       inkscape:connector-curvature="0" /><path
       transform="matrix(1.25,0,0,-1.25,0,391.25)"
       d="m 55.476151,145.49187 0,20.63702"
       style="fill:none;stroke:#fa9600;stroke-width:1.99969947;stroke-linecap:square;stroke-linejoin:miter;stroke-miterlimit:10;stroke-dasharray:none;stroke-opacity:1"
       id="path12290"
       inkscape:connector-curvature="0" /><path
       d="m 402.49986,236.96761 -32.0357,-19.52076 -32.03695,6.15668 -12.81252,-23.23204 -12.81254,-13.08639 -12.81254,-3.27598 -12.81127,-24.84438 -12.81254,-14.47234 -12.81878,-9.20375 -12.81252,-13.31155 -12.81254,-0.27394 -12.81252,-20.57522 -12.81129,25.12207 -12.81254,-11.47905 -12.81752,-3.88264 -12.81253,-2.83192 -12.81254,-15.80074 -12.81252,-20.57149 -12.81754,18.01851 -12.8124,5.43498 -12.81253,16.41491 -12.812408,49.0771 -12.813031,29.8878 -12.817402,5.77143"
       style="fill:none;stroke:#fa9600;stroke-width:2.49962425;stroke-linecap:square;stroke-linejoin:miter;stroke-miterlimit:10;stroke-dasharray:none;stroke-opacity:1"
       id="path12294"
       inkscape:connector-curvature="0"
       sodipodi:nodetypes="cccccccccccccccccccccccc" /><path
       transform="matrix(1.25,0,0,-1.25,0,391.25)"
       d="m 233.8129,286.43364 37.24965,0"
       style="fill:none;stroke:#fa9600;stroke-width:1.99969947;stroke-linecap:square;stroke-linejoin:miter;stroke-miterlimit:10;stroke-dasharray:none;stroke-opacity:1"
       id="path12506"
       inkscape:connector-curvature="0" /></g></svg>